<svg xmlns="http://www.w3.org/2000/svg" width="80" height="30" viewBox="0,0,80,30"><path d="M6 17 C30 4,19 11,79 6" stroke="#555" fill="none"/><path d="M15 16 C59 5,25 22,60 19" stroke="#777" fill="none"/><path fill="#222" d="M12.38 8.55L12.21 8.38L12.21 8.38Q13.09 9.99 14.34 9.99L14.22 9.88L14.26 9.91Q14.53 9.87 14.80 9.77L14.86 9.83L14.89 9.86Q14.60 13.00 14.58 17.11L14.77 17.30L14.62 17.15Q14.60 21.17 14.72 24.54L14.84 24.67L14.72 24.55Q14.62 24.59 14.37 24.59L14.24 24.46L14.37 24.59Q13.38 24.48 12.48 25.68L12.48 25.68L12.45 25.65Q12.93 21.38 12.90 17.08L12.93 17.10L12.97 17.15Q12.80 12.69 12.21 8.38ZM12.22 26.45L12.21 26.44L12.28 26.51Q12.85 25.51 13.61 25.05L13.62 25.06L13.53 24.97Q13.49 25.57 13.44 26.25L13.49 26.30L13.43 26.24Q13.92 25.93 14.41 26.00L14.55 26.14L14.54 26.13Q15.89 26.30 16.77 28.09L16.66 27.98L16.71 28.03Q15.94 23.30 15.94 18.62L15.89 18.57L15.94 18.62Q15.85 13.69 16.37 9.11L16.55 9.30L16.50 9.24Q15.73 10.31 15.05 10.73L15.01 10.69L15.00 10.68Q15.10 10.32 15.18 9.44L15.14 9.40L15.08 9.34Q14.57 9.61 14.08 9.54L14.24 9.70L14.06 9.52Q12.70 9.50 12.04 7.64L12.00 7.61L12.00 7.61Q12.62 12.33 12.69 16.93L12.73 16.98L12.75 16.99Q12.79 21.56 12.15 26.38Z"/><path fill="#333" d="M32.13 17.96L32.07 17.90L32.00 17.83Q31.30 17.40 30.89 17.43L30.78 17.33L30.82 17.36Q30.04 17.51 29.37 18.16L29.30 18.09L29.25 18.04Q28.61 18.72 28.68 19.60L28.72 19.65L28.63 19.55Q28.97 22.49 28.41 25.40L28.37 25.36L28.43 25.42Q26.94 25.65 26.23 25.99L26.19 25.94L26.27 26.03Q27.15 23.26 27.00 20.40L27.02 20.42L27.13 20.53Q26.98 17.63 25.88 15.01L25.74 14.88L25.81 14.94Q26.51 15.36 27.98 15.77L28.09 15.88L28.33 17.48L28.44 17.60Q28.76 15.62 31.50 15.62L31.50 15.62L31.60 15.72Q31.72 15.54 31.92 15.54L31.96 15.59L31.99 15.62Q32.72 15.51 33.52 15.95L33.66 16.09L33.63 16.06Q32.82 16.96 32.09 17.92ZM32.99 19.07L33.22 19.20L33.06 19.04Q33.73 18.39 34.81 16.82L34.73 16.75L34.82 16.84Q34.49 16.58 33.51 16.41L33.54 16.43L33.57 16.46Q33.71 16.19 34.01 15.80L34.07 15.86L33.96 15.75Q32.90 15.33 31.65 15.45L31.60 15.40L31.52 15.32Q30.36 15.54 29.90 15.71L29.95 15.76L29.80 15.61Q28.88 15.86 28.37 16.57L28.50 16.71L28.36 16.15L28.24 15.61L28.12 15.49Q26.57 15.22 25.30 14.36L25.35 14.41L25.46 14.52Q26.71 17.22 26.86 20.35L26.84 20.33L26.95 20.44Q27.01 23.52 25.89 26.43L25.86 26.40L25.90 26.44Q26.60 26.14 27.16 25.94L27.19 25.97L27.07 25.85Q26.95 26.61 26.63 27.30L26.64 27.30L26.72 27.38Q28.42 26.70 29.79 26.63L29.86 26.71L30.03 23.84L30.05 23.86Q30.08 22.37 30.08 20.92L30.04 20.88L30.13 20.97Q30.05 20.14 30.63 19.51L30.74 19.62L30.57 19.45Q31.21 18.88 31.95 18.83L31.97 18.86L31.89 18.78Q32.40 18.80 32.87 19.24L32.75 19.12L33.03 19.10ZM29.83 17.96L29.91 17.99L29.94 18.09L29.79 17.92Z"/><path fill="#333" d="M59.09 7.95L59.19 8.04L59.17 8.03Q59.77 9.31 60.85 9.53L60.79 9.47L60.87 9.56Q61.05 9.47 61.50 9.35L61.64 9.49L61.50 9.36Q61.47 13.26 61.42 17.03L61.47 17.08L61.48 17.09Q61.28 20.63 61.43 24.45L61.59 24.62L61.45 24.48Q61.33 24.51 61.14 24.51L61.11 24.48L61.07 24.43Q60.06 24.43 59.22 25.60L59.37 25.75L59.25 25.63Q59.68 21.16 59.65 16.76L59.67 16.77L59.70 16.80Q59.59 12.31 59.05 7.91ZM58.98 26.37L59.04 26.42L58.97 26.36Q59.64 25.17 60.33 24.87L60.39 24.93L60.44 24.98Q60.33 25.58 60.33 26.21L60.33 26.22L60.33 26.22Q60.74 25.92 61.25 25.99L61.27 26.01L61.30 26.04Q62.58 26.22 63.37 27.96L63.51 28.10L63.34 27.93Q62.61 23.12 62.61 18.32L62.59 18.30L62.57 18.28Q62.75 13.49 63.29 8.79L63.31 8.81L63.19 8.69Q62.62 9.98 61.89 10.37L61.84 10.33L61.81 10.30Q61.75 9.58 61.80 8.89L61.83 8.92L61.92 9.01Q61.32 9.25 60.83 9.15L60.92 9.24L60.80 9.11Q59.52 8.99 58.89 7.15L58.79 7.06L58.90 7.17Q59.55 11.98 59.60 16.83L59.49 16.71L59.55 16.77Q59.53 21.50 58.96 26.35Z"/><path d="M15 27 C28 15,52 20,68 16" stroke="#444" fill="none"/><path fill="#333" d="M43.54 8.00L43.57 8.03L43.57 8.03Q44.17 9.31 45.25 9.53L45.25 9.53L45.16 9.44Q45.61 9.63 46.05 9.50L46.03 9.48L46.01 9.46Q45.90 13.29 45.85 17.06L45.86 17.07L45.73 16.94Q45.70 20.65 45.84 24.47L45.93 24.55L45.89 24.52Q45.69 24.46 45.50 24.46L45.59 24.56L45.50 24.47Q44.61 24.58 43.78 25.76L43.66 25.64L43.66 25.64Q44.08 21.16 44.06 16.76L44.05 16.75L44.16 16.86Q44.01 12.33 43.47 7.92ZM43.39 26.37L43.49 26.47L43.50 26.49Q44.19 25.31 44.87 25.01L44.86 25.01L44.88 25.02Q44.71 25.57 44.71 26.20L44.83 26.32L44.84 26.32Q45.14 25.92 45.65 25.99L45.82 26.16L45.66 26.00Q47.07 26.31 47.85 28.04L47.74 27.93L47.83 28.02Q46.99 23.10 46.99 18.30L46.98 18.29L47.15 18.46Q47.08 13.42 47.62 8.72L47.53 8.64L47.62 8.72Q46.98 9.95 46.25 10.34L46.24 10.33L46.24 10.33Q46.29 9.72 46.34 9.03L46.34 9.03L46.28 8.97Q45.76 9.28 45.27 9.18L45.22 9.14L45.38 9.29Q43.80 8.87 43.17 7.04L43.24 7.11L43.16 7.02Q43.97 12.00 44.02 16.84L43.91 16.74L43.99 16.82Q44.02 21.59 43.45 26.44Z"/></svg>