<svg xmlns="http://www.w3.org/2000/svg" width="80" height="30" viewBox="0,0,80,30"><path fill="#333" d="M16.47 18.83L16.49 18.85L16.44 18.80Q16.27 17.93 15.03 17.46L15.16 17.60L15.16 17.59Q14.76 17.39 14.42 17.39L14.42 17.39L14.49 17.47Q13.65 17.51 12.97 17.87L12.97 17.88L12.85 17.76Q11.98 18.23 12.06 19.02L12.15 19.11L12.01 18.97Q12.28 20.83 12.18 22.28L12.12 22.22L12.14 22.24Q12.16 23.92 11.69 25.53L11.54 25.38L11.72 25.56Q10.26 25.79 9.50 26.06L9.42 25.98L9.54 26.10Q10.56 23.76 10.56 21.19L10.57 21.21L10.50 21.13Q10.46 17.59 8.79 14.73L8.81 14.75L8.84 14.78Q9.57 15.04 11.12 15.51L11.17 15.56L11.26 15.65Q11.30 15.97 11.55 16.95L11.73 17.13L11.67 17.07Q12.51 15.70 15.01 15.75L14.99 15.74L15.08 15.82Q15.99 15.81 16.51 15.88L16.44 15.81L16.47 15.85Q18.40 16.11 18.45 17.41L18.34 17.30L18.39 17.35Q18.51 18.04 18.39 18.70L18.37 18.67L18.29 18.60Q18.11 20.33 18.24 22.26L18.07 22.09L18.06 22.09Q18.17 23.94 18.81 25.58L18.87 25.64L18.92 25.69Q17.81 25.41 16.71 25.31L16.64 25.24L16.76 25.36Q16.36 23.74 16.31 22.03L16.36 22.07L16.43 22.14Q16.29 20.29 16.44 18.80ZM16.46 25.52L16.41 25.48L16.38 25.45Q16.85 25.40 17.68 25.55L17.71 25.57L17.93 26.23L17.95 26.26Q18.17 26.67 18.31 27.01L18.35 27.05L18.25 26.95Q19.74 27.24 21.48 28.00L21.59 28.11L21.59 28.11Q19.98 26.01 19.54 23.57L19.63 23.66L19.53 23.56Q19.30 22.17 19.37 19.80L19.39 19.82L19.32 19.74Q19.49 19.72 19.52 19.21L19.45 19.15L19.45 19.14Q19.53 18.78 19.48 18.46L19.50 18.49L19.51 18.49Q19.38 17.36 18.67 17.04L18.56 16.93L18.65 17.02Q18.50 16.43 18.01 16.04L17.96 15.99L18.06 16.09Q17.01 15.48 15.05 15.53L15.00 15.48L14.94 15.41Q13.76 15.47 13.23 15.59L13.16 15.52L13.20 15.56Q12.37 15.88 11.76 16.47L11.61 16.33L11.67 16.38Q11.58 16.02 11.34 15.36L11.35 15.37L11.47 15.49Q9.63 15.02 8.45 14.39L8.45 14.38L8.41 14.34Q10.41 17.52 10.41 21.22L10.32 21.13L10.40 21.21Q10.38 24.00 9.16 26.47L9.13 26.45L9.14 26.46Q9.51 26.18 10.34 25.94L10.49 26.09L10.39 26.00Q10.14 26.87 9.80 27.51L9.67 27.37L9.76 27.47Q10.72 27.23 13.00 26.86L12.86 26.73L13.03 26.89Q13.61 23.53 13.54 20.43L13.46 20.35L13.52 20.41Q13.39 19.77 14.15 19.30L14.29 19.44L14.27 19.42Q14.84 18.91 15.55 18.84L15.57 18.86L15.67 18.97Q15.90 18.87 16.17 18.99L16.24 19.06L16.13 18.96Q16.11 20.67 16.13 22.31L16.11 22.29L16.15 22.33Q16.12 23.89 16.44 25.50Z"/><path d="M9 3 C29 24,49 1,65 19" stroke="#444" fill="none"/><path fill="#333" d="M43.22 22.64L43.17 22.59L43.32 22.74Q43.92 23.20 44.83 23.10L44.89 23.16L44.82 23.09Q46.83 23.34 47.25 21.19L47.12 21.06L47.15 21.09Q47.64 19.16 47.64 16.98L47.61 16.94L47.58 15.26L47.66 15.33Q47.65 14.52 47.43 13.71L47.30 13.58L47.32 13.60Q46.58 15.13 45.31 18.19L45.39 18.27L45.23 18.12Q43.98 21.20 43.20 22.62ZM46.51 12.10L46.38 11.97L46.48 12.07Q45.73 11.55 44.88 11.55L44.92 11.59L44.91 11.58Q43.83 11.35 43.12 11.94L43.21 12.03L43.25 12.07Q42.46 12.58 42.34 13.54L42.47 13.66L42.32 13.52Q42.25 14.55 42.22 15.50L42.19 15.47L42.12 15.40Q42.10 15.38 42.10 17.21L42.11 17.23L42.09 17.20Q42.05 18.68 42.35 21.01L42.44 21.10L42.48 21.14Q43.69 18.07 46.50 12.09ZM47.56 24.24L47.44 24.12L47.47 24.15Q46.35 24.74 44.86 24.74L44.95 24.84L43.73 24.67L43.89 24.83Q41.77 24.79 41.04 23.69L40.89 23.54L40.93 23.58Q40.40 22.17 40.35 20.29L40.33 20.27L40.44 20.38Q40.35 19.19 40.30 16.96L40.39 17.05L40.32 16.97Q40.28 16.18 40.18 14.22L40.29 14.33L40.14 14.17Q40.16 12.77 40.35 11.50L40.38 11.53L40.34 11.49Q40.73 9.67 43.52 9.53L43.45 9.46L43.51 9.52Q43.98 9.48 44.84 9.50L44.83 9.49L44.80 9.46Q48.57 9.69 49.26 11.92L49.25 11.91L49.22 11.88Q49.51 13.00 49.49 14.20L49.55 14.27L49.44 14.15Q49.57 17.54 49.52 18.32L49.46 18.26L49.44 18.24Q49.36 20.73 49.16 21.56L49.20 21.59L49.17 21.57Q48.66 23.48 47.44 24.12ZM50.70 24.05L50.59 23.94L50.56 23.91Q50.87 22.29 50.85 21.14L50.86 21.15L50.78 18.16L50.69 18.07Q50.77 16.27 50.43 12.72L50.38 12.67L50.24 12.53Q49.90 11.35 49.06 10.86L49.08 10.88L49.09 10.89Q48.19 9.35 44.86 9.25L44.83 9.22L44.76 9.15Q44.25 9.18 43.39 9.21L43.43 9.25L43.35 9.17Q40.52 9.30 40.20 11.30L40.20 11.30L40.09 11.19Q39.92 12.76 39.99 14.10L39.95 14.06L39.91 14.02Q40.30 17.00 40.27 19.16L40.18 19.07L40.25 19.14Q40.20 21.48 40.27 22.14L40.28 22.15L40.32 22.19Q40.44 24.04 41.42 24.56L41.54 24.68L41.53 24.67Q42.48 26.08 45.05 26.25L44.99 26.20L45.07 26.28Q47.36 26.42 47.78 26.39L47.66 26.27L47.64 26.25Q49.64 26.32 50.37 25.29L50.24 25.16L50.34 25.26Q50.54 24.70 50.59 23.94ZM45.06 22.85L45.18 22.96L45.16 22.94Q45.58 21.99 46.27 20.26L46.18 20.17L47.30 17.47L47.44 17.61Q47.38 18.63 47.14 20.78L47.14 20.79L47.07 20.72Q46.76 22.68 45.22 23.00ZM43.83 14.98L43.78 14.92L43.76 14.91Q44.11 13.82 44.55 13.45L44.62 13.52L44.49 13.39Q44.92 13.26 45.75 13.13L45.63 13.01L45.79 13.17Q44.61 15.44 43.41 18.42L43.46 18.47L43.43 18.45Q43.32 16.60 43.76 14.91Z"/><path d="M16 3 C23 27,35 15,77 10" stroke="#666" fill="none"/><path fill="#222" d="M30.97 19.68L24.85 13.06L24.92 13.13Q25.55 15.60 25.55 18.00L25.56 18.01L25.55 18.01Q25.55 21.84 24.23 25.41L24.16 25.35L24.22 25.40Q23.50 25.54 22.05 26.03L22.03 26.01L22.08 26.06Q23.87 22.31 23.87 18.01L23.76 17.90L23.85 17.99Q23.83 12.41 20.94 7.64L21.03 7.73L20.99 7.69Q21.14 7.67 21.58 7.94L21.72 8.07L21.63 7.98Q29.43 15.22 34.47 21.17L34.53 21.23L34.49 21.19Q34.22 19.55 34.22 17.99L34.33 18.09L34.39 18.16Q34.27 13.39 35.89 9.40L35.85 9.36L36.00 9.51Q37.33 9.01 38.36 8.56L38.44 8.65L38.43 8.63Q36.26 12.56 36.07 17.16L36.15 17.25L36.07 17.17Q35.86 21.88 37.77 25.84L37.76 25.83L37.89 25.96Q37.38 25.77 37.11 25.64L37.14 25.67L37.28 25.81Q34.16 23.08 30.80 19.51L30.84 19.55ZM39.60 28.04L39.56 28.00L39.43 27.87Q39.86 28.11 40.13 28.23L40.09 28.19L40.58 28.36L40.62 28.40Q37.30 23.93 37.30 17.91L37.37 17.98L37.38 17.99Q37.30 13.25 39.43 9.24L39.52 9.33L39.44 9.26Q39.08 9.46 38.18 9.85L38.14 9.81L38.05 9.72Q38.37 9.26 38.90 8.25L38.85 8.19L38.98 8.33Q37.31 8.82 35.75 9.18L35.71 9.15L35.84 9.27Q34.03 13.32 34.03 18.09L34.15 18.21L34.12 18.18Q34.12 19.37 34.24 20.65L34.20 20.60L34.12 20.53Q31.11 16.86 28.05 13.90L28.13 13.97L21.65 7.74L21.70 7.79Q21.34 7.60 20.56 7.24L20.53 7.21L20.49 7.17Q23.72 12.23 23.72 18.08L23.68 18.04L23.56 17.92Q23.63 22.56 21.65 26.43L21.60 26.38L21.69 26.48Q21.84 26.36 22.90 25.97L22.84 25.91L22.96 26.03Q22.76 26.54 22.22 27.49L22.20 27.47L22.14 27.42Q22.98 27.06 25.21 26.54L25.17 26.50L25.27 26.61Q26.68 22.58 26.68 17.95L26.75 18.02L26.68 17.96Q26.75 16.68 26.60 15.31L26.57 15.27L26.62 15.33Q33.93 23.49 39.46 27.90Z"/><path fill="#333" d="M65.00 12.81L65.00 12.81L64.92 12.73Q63.86 11.87 62.80 11.62L62.92 11.74L62.88 11.69Q62.07 11.43 60.28 11.40L60.36 11.48L60.25 11.37Q57.01 11.43 55.69 12.73L55.74 12.78L55.64 12.68Q54.63 13.73 54.70 16.10L54.70 16.10L54.76 16.16Q54.85 18.60 54.95 19.21L54.87 19.13L54.82 19.08Q55.56 23.05 60.53 23.05L60.44 22.96L60.45 22.97Q63.61 23.12 64.96 21.58L64.89 21.52L64.88 21.51Q66.11 20.12 66.26 17.06L66.26 17.07L66.28 17.08Q66.39 13.94 64.90 12.71ZM60.54 25.00L60.55 25.01L60.50 24.96Q56.26 25.00 54.35 23.48L54.44 23.57L54.31 23.44Q53.08 22.16 53.00 18.90L52.95 18.85L52.92 18.82Q52.90 18.49 52.81 16.38L52.81 16.39L52.87 16.45Q52.68 14.67 52.71 13.98L52.72 14.00L52.81 14.09Q52.84 12.18 53.74 11.08L53.89 11.23L53.74 11.08Q55.42 9.65 58.55 9.55L58.65 9.65L58.56 9.56Q59.69 9.51 60.25 9.54L60.35 9.63L60.20 9.49Q66.67 9.61 67.79 12.40L67.84 12.45L67.85 12.46Q68.37 13.76 68.27 15.52L68.33 15.58L68.29 15.54Q68.13 16.48 68.01 18.59L68.18 18.76L68.04 18.62Q67.92 20.43 67.33 21.75L67.29 21.71L67.40 21.83Q66.16 24.94 60.60 25.06ZM68.37 24.87L68.49 25.00L68.52 25.02Q69.29 23.77 69.37 21.78L69.48 21.90L69.38 21.80Q69.39 21.10 69.36 20.07L69.42 20.12L69.40 20.10Q69.44 19.68 69.42 18.50L69.43 18.52L69.30 18.39Q69.40 13.93 68.15 12.34L68.08 12.27L68.11 12.30Q67.82 11.62 67.11 10.91L67.07 10.87L67.10 10.90Q64.94 9.26 60.15 9.16L60.29 9.31L60.22 9.23Q55.48 9.17 53.52 10.83L53.49 10.80L53.60 10.91Q52.66 12.10 52.66 13.99L52.56 13.88L52.55 13.88Q52.52 14.67 52.61 15.53L52.71 15.62L52.59 15.50Q52.77 16.37 52.80 17.30L52.74 17.25L52.67 17.18Q52.79 19.75 52.89 20.50L52.92 20.53L52.86 20.47Q53.19 22.45 54.05 23.60L53.97 23.52L54.01 23.56Q54.37 24.45 55.05 24.94L55.00 24.89L54.89 24.78Q56.95 26.26 61.95 26.38L61.97 26.40L62.04 26.47Q66.70 26.55 68.41 24.91ZM66.14 17.11L66.08 17.05L66.02 17.00Q65.94 19.97 64.72 21.32L64.78 21.38L64.63 21.24Q63.39 22.78 60.53 22.81L60.55 22.83L60.61 22.89Q57.65 22.75 56.28 21.52L56.42 21.66L56.39 21.63Q55.94 20.59 55.99 18.73L55.91 18.65L56.00 18.74Q56.02 15.73 57.32 14.34L57.37 14.39L57.33 14.35Q58.67 12.99 61.63 12.99L61.64 13.00L61.54 12.90Q64.27 12.94 65.62 14.14L65.53 14.06L65.58 14.10Q66.23 15.34 66.15 17.13Z"/><path d="M4 5 C41 21,46 5,70 5" stroke="#888" fill="none"/></svg>