<svg xmlns="http://www.w3.org/2000/svg" width="80" height="30" viewBox="0,0,80,30"><path fill="#222" d="M31.95 18.71L32.06 18.82L31.98 18.74Q31.91 17.96 30.66 17.49L30.68 17.52L30.64 17.48Q30.46 17.49 30.12 17.49L30.04 17.41L30.10 17.48Q29.15 17.41 28.47 17.77L28.39 17.69L28.54 17.85Q27.56 18.21 27.63 18.99L27.69 19.05L27.67 19.03Q27.89 20.84 27.79 22.28L27.83 22.33L27.89 22.39Q27.76 23.92 27.30 25.54L27.27 25.51L27.17 25.41Q25.96 25.88 25.20 26.15L25.13 26.08L25.13 26.09Q26.09 23.69 26.09 21.12L26.09 21.12L26.09 21.13Q26.04 17.57 24.37 14.71L24.53 14.87L24.43 14.76Q25.17 15.04 26.71 15.50L26.84 15.63L26.73 15.52Q27.07 16.13 27.31 17.11L27.29 17.09L27.15 16.94Q28.02 15.62 30.52 15.66L30.67 15.81L30.58 15.73Q31.57 15.79 32.08 15.86L32.04 15.82L32.01 15.79Q34.03 16.15 34.08 17.44L34.02 17.38L33.93 17.29Q33.95 17.87 33.83 18.53L33.90 18.61L33.93 18.64Q33.65 20.26 33.77 22.20L33.82 22.24L33.81 22.23Q33.84 24.01 34.48 25.65L34.56 25.73L34.39 25.55Q33.36 25.36 32.26 25.26L32.27 25.28L32.34 25.34Q32.00 23.78 31.95 22.07L31.99 22.11L31.92 22.03Q31.95 20.35 32.09 18.85ZM32.07 25.54L32.12 25.59L32.09 25.56Q32.45 25.41 33.29 25.55L33.47 25.74L33.68 26.39L33.71 26.42Q33.74 26.64 33.89 26.99L33.85 26.95L33.85 26.95Q35.45 27.35 37.19 28.11L37.06 27.99L37.15 28.08Q35.62 26.05 35.18 23.61L35.05 23.47L35.19 23.62Q34.93 22.21 35.00 19.83L34.99 19.82L35.07 19.89Q34.90 19.53 34.92 19.01L35.06 19.15L35.05 19.14Q35.05 18.71 35.01 18.39L34.99 18.38L34.99 18.37Q34.85 17.23 34.14 16.92L34.31 17.09L34.21 16.98Q34.19 16.52 33.70 16.13L33.58 16.01L33.64 16.07Q32.46 15.33 30.50 15.38L30.64 15.52L30.69 15.56Q29.40 15.50 28.86 15.62L28.76 15.52L28.93 15.69Q27.89 15.80 27.28 16.39L27.40 16.51L27.37 16.48Q27.33 16.17 27.08 15.51L26.94 15.37L27.01 15.44Q25.12 14.91 23.94 14.28L24.00 14.34L24.07 14.41Q26.05 17.56 26.05 21.25L26.03 21.24L26.04 21.25Q25.95 23.97 24.72 26.44L24.84 26.55L24.78 26.49Q25.21 26.29 26.05 26.05L26.02 26.02L26.02 26.03Q25.71 26.84 25.37 27.47L25.43 27.54L25.44 27.55Q26.30 27.21 28.58 26.84L28.61 26.88L28.60 26.86Q29.09 23.41 29.02 20.30L29.10 20.38L29.03 20.32Q29.08 19.85 29.83 19.39L29.78 19.33L29.81 19.36Q30.54 19.02 31.25 18.94L31.13 18.82L31.20 18.89Q31.57 18.94 31.84 19.07L31.69 18.92L31.69 18.91Q31.57 20.53 31.59 22.17L31.68 22.26L31.71 22.29Q31.70 23.87 32.02 25.49Z"/><path d="M3 8 C47 27,51 17,68 13" stroke="#444" fill="none"/><path fill="#222" d="M59.63 15.00L59.66 15.02L59.62 14.98Q60.23 15.25 61.50 15.25L61.44 15.19L61.47 19.82L61.58 19.93Q61.46 22.53 61.54 24.39L61.63 24.49L61.52 24.38Q61.45 24.45 61.21 24.45L61.06 24.31L61.16 24.41Q60.26 24.43 59.33 25.29L59.34 25.30L59.39 25.35Q59.82 20.37 59.70 15.06ZM59.74 11.68L59.02 9.98L59.00 9.96Q59.89 9.18 60.35 8.57L60.41 8.63L60.40 8.62Q61.16 9.89 62.06 10.97L62.06 10.97L62.09 10.99Q61.44 11.84 60.56 13.21L60.55 13.20L60.71 13.36Q60.08 12.51 59.72 11.66L59.68 11.62ZM58.96 25.83L58.91 25.77L58.87 25.74Q59.63 25.15 60.44 24.83L60.35 24.74L60.45 24.85Q60.31 25.14 60.23 26.02L60.35 26.14L60.35 26.14Q60.80 26.00 61.21 26.00L61.23 26.02L61.24 26.03Q62.69 26.06 63.59 27.33L63.55 27.29L63.55 27.28Q62.67 22.49 62.72 15.96L62.80 16.04L62.69 15.93Q62.18 16.03 61.64 16.10L61.64 16.10L61.71 14.97L61.63 14.89Q61.07 15.06 60.56 15.02L60.62 15.08L60.57 15.03Q60.05 15.00 59.49 14.68L59.36 14.55L59.53 14.72Q59.58 16.00 59.58 17.32L59.50 17.24L59.59 17.33Q59.56 21.82 58.99 25.86ZM60.67 13.71L60.60 13.64L60.62 13.41L60.85 13.45L60.70 13.30Q60.99 13.83 61.65 14.79L61.66 14.80L61.69 14.82Q62.50 13.27 63.36 10.99L63.46 11.10L63.34 10.98Q62.89 10.59 61.88 9.56L61.96 9.64L61.91 9.59Q61.72 9.60 61.55 9.89L61.67 10.01L61.59 9.94Q61.02 9.17 60.44 8.24L60.39 8.19L60.32 8.13Q59.57 9.35 58.81 9.57L58.79 9.56L58.83 9.59Q59.38 11.66 60.56 13.60Z"/><path fill="#333" d="M44.42 16.65L44.47 16.70L44.55 16.77Q43.08 16.75 42.26 17.72L42.32 17.77L42.30 17.75Q41.35 18.59 41.28 20.06L41.33 20.11L41.25 20.03Q41.23 21.80 41.77 22.41L41.87 22.52L41.77 22.41Q42.41 23.15 43.90 23.06L44.02 23.17L44.00 23.16Q46.90 22.87 47.15 20.94L47.16 20.95L47.16 20.95Q47.25 20.46 47.25 19.94L47.34 20.03L47.30 19.99Q47.27 18.69 46.54 17.71L46.50 17.67L46.61 17.78Q45.80 16.75 44.55 16.77ZM47.64 23.25L47.60 23.20L47.63 23.23Q46.62 24.55 43.80 24.69L43.90 24.79L43.91 24.80Q41.18 24.86 40.13 24.15L40.01 24.03L40.03 24.05Q39.39 23.43 39.29 22.33L39.32 22.36L39.31 22.35Q39.32 21.68 39.45 20.48L39.46 20.50L39.46 20.50Q39.80 17.75 40.58 16.58L40.61 16.61L40.61 16.60Q41.63 14.98 44.11 15.01L44.07 14.98L44.14 15.04Q45.74 15.06 47.21 16.55L47.10 16.44L47.12 16.46Q47.25 12.77 48.28 8.58L48.24 8.54L48.26 8.56Q49.51 8.33 50.71 7.79L50.64 7.72L50.62 7.70Q49.01 12.01 48.84 16.51L48.77 16.44L48.84 16.52Q48.70 21.18 50.07 25.41L50.10 25.43L49.95 25.28Q49.08 25.07 47.98 24.83L47.88 24.73L47.93 24.78Q47.61 23.83 47.52 23.12ZM49.58 26.75L49.43 26.60L49.62 26.79Q50.94 27.14 52.58 28.11L52.60 28.13L52.49 28.02Q50.18 23.56 50.09 18.23L50.00 18.14L49.94 18.07Q49.94 12.89 51.92 8.14L51.88 8.10L52.02 8.24Q51.55 8.51 50.62 8.92L50.53 8.83L50.47 8.77Q50.87 8.21 51.26 7.43L51.22 7.39L51.18 7.35Q49.67 8.06 48.10 8.43L48.15 8.49L48.15 8.48Q47.04 12.02 46.87 15.94L46.98 16.05L46.91 15.98Q45.81 14.93 44.19 14.85L44.12 14.78L44.16 14.82Q41.86 14.65 40.64 15.99L40.58 15.94L40.69 16.05Q39.63 17.61 39.36 20.62L39.36 20.62L39.36 20.62Q39.04 22.23 39.04 22.50L39.04 22.50L39.18 22.64Q39.15 23.68 39.88 24.37L39.82 24.31L39.82 24.31Q40.04 24.53 40.17 24.58L40.26 24.67L40.43 24.96L40.38 24.92Q41.15 25.93 43.06 26.10L43.08 26.13L43.06 26.10Q44.50 26.22 45.38 26.27L45.28 26.17L45.35 26.24Q48.09 26.41 49.19 25.55L49.03 25.40L49.15 25.51Q49.22 25.95 49.51 26.68ZM45.53 18.20L45.49 18.15L45.58 18.24Q46.27 18.28 46.81 18.59L46.80 18.59L46.65 18.44Q47.03 19.33 47.08 19.99L47.01 19.92L47.16 20.07Q47.25 22.68 44.02 22.90L44.10 22.98L44.05 22.93Q43.45 22.92 42.74 22.75L42.78 22.79L42.75 22.76Q42.50 22.27 42.46 21.93L42.52 21.99L42.50 21.97Q42.52 21.60 42.54 21.20L42.54 21.21L42.49 21.15Q42.80 19.07 44.49 18.43L44.47 18.41L44.52 18.46Q45.12 18.20 45.56 18.23Z"/><path d="M1 17 C43 11,22 24,62 22" stroke="#777" fill="none"/><path d="M9 24 C31 28,46 19,64 11" stroke="#333" fill="none"/><path fill="#444" d="M12.41 8.07L12.29 7.94L12.37 8.03Q12.95 9.29 14.03 9.51L13.98 9.47L13.97 9.46Q14.29 9.50 14.73 9.38L14.87 9.52L14.76 9.41Q14.58 13.17 14.53 16.94L14.52 16.93L14.70 17.11Q14.64 20.79 14.78 24.61L14.78 24.60L14.65 24.48Q14.47 24.44 14.28 24.44L14.29 24.46L14.32 24.49Q13.31 24.48 12.48 25.65L12.53 25.71L12.50 25.68Q13.00 21.28 12.97 16.88L13.00 16.90L12.99 16.89Q12.79 12.31 12.25 7.91ZM12.32 26.50L12.17 26.35L12.35 26.53Q12.85 25.18 13.54 24.88L13.54 24.88L13.61 24.95Q13.62 25.67 13.62 26.30L13.62 26.31L13.63 26.32Q13.99 25.97 14.51 26.05L14.45 25.99L14.52 26.06Q15.88 26.31 16.66 28.05L16.58 27.97L16.64 28.03Q15.85 23.16 15.85 18.36L15.80 18.31L15.90 18.41Q15.88 13.43 16.42 8.73L16.49 8.79L16.49 8.80Q15.78 9.94 15.05 10.33L15.00 10.28L14.99 10.28Q14.97 9.60 15.02 8.91L15.05 8.94L15.17 9.06Q14.50 9.22 14.01 9.12L14.02 9.14L14.03 9.14Q12.75 9.02 12.12 7.18L12.09 7.16L12.02 7.09Q12.64 11.87 12.69 16.72L12.80 16.83L12.67 16.69Q12.72 21.50 12.16 26.34Z"/></svg>