<svg xmlns="http://www.w3.org/2000/svg" width="80" height="30" viewBox="0,0,80,30"><path fill="#333" d="M29.42 11.60L29.36 11.54L28.38 11.64L28.42 11.68Q26.87 11.65 26.72 12.95L26.74 12.96L26.70 12.92Q26.73 13.46 26.75 14.10L26.77 14.12L26.71 14.06Q26.85 15.43 27.66 16.28L27.53 16.15L27.57 16.19Q28.45 17.12 29.68 17.02L29.65 16.99L29.63 16.98Q31.00 16.93 31.49 16.34L31.46 16.32L31.39 16.25Q32.07 15.65 32.24 14.21L32.25 14.21L32.22 14.18Q32.53 12.88 31.72 12.34L31.57 12.19L31.62 12.24Q31.17 11.83 29.45 11.64ZM33.16 17.41L33.17 17.41L32.35 18.89L32.33 18.88Q30.77 22.13 28.34 24.75L28.30 24.70L28.26 24.66Q27.13 24.68 25.39 25.20L25.46 25.27L25.44 25.24Q28.92 21.26 30.95 18.17L30.89 18.11L30.90 18.13Q30.21 18.51 29.15 18.56L29.28 18.68L29.15 18.56Q27.19 18.63 26.21 17.36L26.37 17.51L26.28 17.43Q25.59 16.48 24.88 13.55L24.89 13.56L24.81 13.48Q24.80 13.17 24.70 12.57L24.68 12.56L24.67 12.54Q24.52 11.89 24.52 11.60L24.58 11.66L24.71 11.79Q24.65 10.58 25.34 10.19L25.25 10.10L25.26 10.11Q26.06 9.64 27.26 9.64L27.22 9.60L27.37 9.75Q29.30 9.63 29.30 9.63L29.30 9.62L29.32 9.64Q30.68 9.63 31.48 9.75L31.56 9.83L31.49 9.76Q32.88 9.95 33.47 10.27L33.40 10.20L33.42 10.22Q34.39 10.80 34.51 11.92L34.52 11.94L34.48 11.90Q34.42 11.98 34.29 13.69L34.31 13.70L34.46 13.86Q34.05 15.06 33.90 15.60L34.00 15.70L33.99 15.68Q33.76 16.60 33.27 17.51ZM34.45 19.01L34.57 19.13L34.52 19.08Q35.10 17.60 35.44 14.84L35.45 14.84L35.41 14.80Q35.68 13.48 35.65 12.92L35.65 12.92L35.69 12.95Q35.61 11.70 34.85 11.11L34.75 11.01L34.64 11.03L34.55 10.93Q34.46 10.53 33.87 10.11L33.86 10.10L33.86 10.09Q32.43 9.50 29.35 9.41L29.35 9.41L29.36 9.41Q28.71 9.38 27.14 9.38L27.12 9.35L27.11 9.34Q25.98 9.34 25.02 9.78L25.03 9.78L25.02 9.77Q24.29 10.29 24.34 11.47L24.32 11.45L24.30 11.43Q24.55 12.14 24.67 13.44L24.65 13.42L24.52 13.28Q24.99 15.06 25.16 15.60L25.16 15.60L25.08 15.52Q25.58 16.84 26.19 17.67L26.10 17.59L26.06 17.54Q26.39 17.92 26.63 18.17L26.48 18.02L26.66 18.19Q26.66 18.32 27.08 18.90L27.22 19.04L27.09 18.91Q28.21 19.97 29.46 20.09L29.33 19.96L29.33 19.96Q28.15 21.71 27.14 22.93L27.22 23.01L24.82 25.75L24.79 25.72Q26.21 25.21 27.26 24.99L27.21 24.93L27.31 25.03Q26.78 25.56 25.77 26.66L25.77 26.65L25.85 26.73Q27.79 26.11 29.80 26.08L29.78 26.06L29.85 26.13Q31.31 24.43 34.10 19.78L34.01 19.69L34.00 19.73L34.05 19.78Q34.20 19.30 34.42 18.98ZM30.68 13.16L30.63 13.10L30.60 13.08Q31.03 13.04 31.33 13.12L31.22 13.02L31.22 13.02Q31.77 13.22 32.01 13.29L31.99 13.27L31.90 13.18Q32.02 13.47 32.06 13.74L32.07 13.74L32.14 13.81Q32.13 14.02 32.06 14.27L32.00 14.21L32.00 14.21Q32.09 15.43 31.34 16.14L31.21 16.01L31.29 16.09Q30.66 16.74 29.61 16.71L29.60 16.70L29.69 16.80Q29.31 16.69 28.33 16.49L28.37 16.53L28.37 16.53Q28.27 16.01 28.27 15.55L28.17 15.45L28.19 15.47Q28.12 15.27 28.12 15.12L28.26 15.26L28.16 15.17Q28.17 13.76 29.64 13.24L29.57 13.17L29.62 13.23Q30.10 13.11 30.64 13.11Z"/><path d="M18 2 C59 22,25 14,77 4" stroke="#888" fill="none"/><path fill="#333" d="M44.40 17.32L44.40 17.32L44.47 17.39Q42.57 17.30 42.08 18.75L42.07 18.74L42.19 18.85Q41.98 19.26 41.90 19.67L41.98 19.75L41.90 19.67Q43.60 19.83 44.66 19.83L44.64 19.82L44.61 19.79Q45.71 19.83 47.38 19.76L47.39 19.77L47.30 19.69Q47.27 18.63 46.37 17.95L46.41 17.98L46.43 18.00Q45.59 17.36 44.44 17.36ZM44.42 25.37L44.48 25.43L44.38 25.33Q41.70 25.37 40.87 24.46L40.88 24.47L40.98 24.58Q40.37 23.65 40.27 21.54L40.19 21.46L40.17 21.44Q40.10 21.22 40.05 20.34L40.24 20.53L40.16 20.45Q40.08 18.97 40.08 18.51L40.01 18.44L40.01 18.44Q40.03 17.26 40.49 16.55L40.44 16.50L40.47 16.53Q41.38 15.62 43.29 15.62L43.42 15.75L44.26 15.59L44.23 15.56Q45.68 15.69 46.66 15.88L46.71 15.94L46.68 15.91Q48.00 16.20 48.64 16.98L48.68 17.02L48.49 16.83Q49.08 17.72 49.13 19.07L49.04 18.98L49.11 19.05Q48.98 19.65 49.01 21.05L48.97 21.01L49.13 21.17Q47.19 21.09 45.40 21.09L45.43 21.12L41.80 21.08L41.85 21.14Q41.88 23.91 44.50 23.76L44.53 23.79L44.60 23.86Q47.02 23.74 47.80 22.56L47.71 22.46L47.76 22.51Q48.29 22.83 49.32 23.58L49.42 23.69L49.31 23.58Q48.47 25.17 45.81 25.34L45.79 25.32L45.80 25.33Q45.42 25.45 44.54 25.49ZM45.98 26.96L45.99 26.96L45.88 26.85Q46.57 26.81 47.36 26.86L47.33 26.83L47.43 26.94Q50.60 27.03 51.19 25.24L51.23 25.28L51.29 25.34Q50.18 24.48 49.47 23.99L49.48 24.00L49.37 23.88Q49.60 23.74 49.72 23.60L49.75 23.62L49.69 23.57Q49.15 23.20 48.27 22.59L48.35 22.67L48.41 22.73Q49.03 22.68 50.35 22.88L50.39 22.92L50.36 22.89Q50.27 22.04 50.22 21.60L50.30 21.68L50.02 20.26L50.17 20.40Q50.02 18.84 49.61 17.88L49.69 17.96L49.64 17.91Q49.39 17.61 49.02 17.22L49.11 17.31L49.09 17.29Q48.87 16.97 48.72 16.60L48.77 16.65L48.78 16.66Q47.62 15.41 44.37 15.41L44.30 15.34L43.18 15.29L43.21 15.33Q41.23 15.42 40.30 16.38L40.15 16.23L40.29 16.37Q39.79 17.02 39.81 18.34L39.91 18.44L39.78 18.31Q39.82 18.93 39.89 20.38L40.03 20.52L39.87 20.35Q40.10 21.56 40.17 22.88L40.05 22.77L40.00 22.72Q40.16 24.14 40.72 24.83L40.86 24.97L40.77 24.88Q40.87 24.98 40.99 25.05L41.11 25.17L41.19 25.47L41.24 25.52Q41.68 26.64 45.91 26.89ZM44.62 23.61L44.60 23.59L44.62 23.61Q43.79 23.59 43.20 23.30L43.22 23.31L43.22 23.31Q43.27 23.14 43.14 22.70L43.06 22.62L43.02 22.57Q44.23 22.64 45.26 22.64L45.24 22.62L45.26 22.64Q46.20 22.50 47.27 22.57L47.31 22.61L47.40 22.69Q46.42 23.40 44.48 23.48ZM45.53 18.74L45.63 18.85L45.59 18.81Q45.99 18.82 46.85 19.06L46.91 19.12L46.93 19.26L47.06 19.51L47.03 19.49Q46.10 19.51 45.51 19.49L45.55 19.53L45.54 19.51Q44.17 19.59 44.14 19.59L44.09 19.53L44.13 19.57Q44.47 18.84 45.55 18.76Z"/><path d="M17 8 C51 28,22 7,65 18" stroke="#999" fill="none"/><path d="M17 11 C44 6,36 22,61 7" stroke="#444" fill="none"/><path fill="#333" d="M18.02 17.41L18.04 17.42L14.22 17.45L14.25 17.48Q12.40 17.54 10.52 17.49L10.47 17.44L10.41 17.39Q10.50 21.71 9.18 25.26L9.16 25.24L9.24 25.32Q8.07 25.64 6.95 26.08L6.93 26.07L6.80 25.94Q8.63 22.31 8.63 18.03L8.69 18.08L8.66 18.06Q8.73 12.67 6.08 8.14L6.04 8.10L5.98 8.03Q7.09 8.68 8.68 9.19L8.64 9.15L8.59 9.11Q9.97 12.36 10.31 15.50L10.23 15.42L10.33 15.52Q12.44 15.84 14.27 15.81L14.16 15.70L14.09 15.64Q15.97 15.80 18.10 15.63L18.09 15.62L17.98 15.51Q18.41 12.80 19.53 9.52L19.36 9.35L19.48 9.47Q20.69 9.16 22.14 8.63L22.06 8.55L22.07 8.56Q19.85 13.00 19.85 18.11L19.78 18.04L19.87 18.13Q19.74 21.99 21.25 25.41L21.32 25.48L21.31 25.47Q20.31 25.11 18.99 24.91L18.96 24.88L19.04 24.96Q17.97 21.74 18.05 17.44ZM18.83 25.15L18.90 25.21L18.89 25.20Q19.38 25.13 20.09 25.30L20.18 25.40L20.19 25.40Q20.35 25.81 20.77 26.76L20.90 26.90L20.86 26.85Q22.97 27.42 24.12 28.01L24.06 27.96L24.05 27.94Q21.21 24.00 21.02 18.69L21.15 18.83L21.17 18.84Q20.85 13.56 23.20 9.18L23.25 9.23L22.58 9.53L22.59 9.54Q22.30 9.72 21.91 9.82L21.91 9.82L21.77 9.68Q22.11 9.24 22.65 8.24L22.68 8.27L22.60 8.19Q21.01 8.96 19.32 9.28L19.26 9.23L19.17 9.13Q18.19 12.34 17.89 15.35L17.95 15.41L17.91 15.37Q16.36 15.56 14.80 15.56L14.61 15.37L14.79 15.54Q13.14 15.44 11.52 15.34L11.64 15.46L11.61 15.42Q11.44 13.30 10.73 10.68L10.65 10.60L10.61 10.56Q10.22 10.54 9.29 10.29L9.27 10.28L9.38 10.38Q9.00 9.47 8.71 8.81L8.79 8.89L8.82 8.92Q7.04 8.41 5.57 7.60L5.58 7.61L5.48 7.51Q8.51 12.37 8.51 18.03L8.56 18.08L8.44 17.96Q8.58 22.57 6.57 26.51L6.44 26.38L6.41 26.36Q6.90 26.21 7.76 25.84L7.83 25.92L7.71 25.80Q7.65 26.50 7.14 27.47L7.15 27.49L7.05 27.39Q8.97 26.86 10.42 26.59L10.24 26.41L10.24 26.42Q11.49 22.89 11.61 18.93L11.57 18.89L11.59 18.90Q12.76 19.00 14.82 18.98L14.66 18.82L14.66 18.82Q16.52 18.82 17.74 18.87L17.74 18.86L17.74 18.86Q17.99 22.64 18.85 25.16Z"/><path fill="#444" d="M63.27 18.83L63.26 18.82L63.18 18.74Q63.26 18.11 62.01 17.64L61.91 17.55L61.83 17.46Q61.69 17.52 61.35 17.52L61.29 17.46L61.34 17.51Q60.34 17.39 59.65 17.76L59.74 17.85L59.72 17.83Q58.78 18.23 58.86 19.02L58.79 18.95L58.92 19.08Q59.01 20.76 58.91 22.20L59.04 22.34L59.08 22.37Q58.92 23.88 58.46 25.50L58.36 25.40L58.37 25.41Q57.11 25.83 56.35 26.10L56.23 25.99L56.37 26.13Q57.33 23.73 57.33 21.16L57.38 21.22L57.37 21.20Q57.36 17.69 55.70 14.83L55.74 14.88L55.59 14.73Q56.55 15.22 58.09 15.68L57.96 15.55L58.05 15.64Q58.16 16.03 58.41 17.01L58.40 17.00L58.43 17.03Q59.27 15.66 61.76 15.71L61.70 15.64L61.84 15.78Q62.73 15.75 63.25 15.82L63.23 15.80L63.32 15.90Q65.10 16.01 65.15 17.31L65.29 17.45L65.22 17.38Q65.16 17.89 65.04 18.55L65.08 18.58L65.11 18.61Q64.90 20.32 65.02 22.25L64.90 22.13L64.94 22.16Q65.01 23.98 65.65 25.62L65.69 25.66L65.63 25.59Q64.59 25.39 63.49 25.29L63.57 25.37L63.45 25.25Q63.26 23.84 63.22 22.13L63.18 22.10L63.11 22.02Q62.99 20.19 63.13 18.69ZM63.21 25.48L63.15 25.42L63.26 25.53Q63.76 25.52 64.60 25.66L64.52 25.59L64.88 26.39L64.76 26.26Q64.99 26.70 65.14 27.04L65.01 26.91L65.03 26.93Q66.65 27.35 68.38 28.11L68.40 28.12L68.26 27.98Q66.85 26.08 66.41 23.64L66.41 23.64L66.31 23.54Q66.06 22.14 66.13 19.76L66.26 19.88L66.17 19.80Q66.17 19.61 66.20 19.09L66.30 19.19L66.16 19.05Q66.29 18.74 66.24 18.43L66.24 18.43L66.18 18.36Q66.19 17.37 65.48 17.05L65.35 16.92L65.40 16.97Q65.42 16.55 64.93 16.16L64.88 16.11L64.79 16.02Q63.68 15.35 61.72 15.40L61.75 15.43L61.81 15.48Q60.60 15.50 60.06 15.63L60.15 15.71L60.04 15.60Q59.14 15.85 58.53 16.44L58.59 16.50L58.44 16.35Q58.46 16.10 58.21 15.44L58.25 15.47L58.20 15.43Q56.37 14.97 55.20 14.33L55.29 14.42L55.14 14.27Q57.17 17.48 57.17 21.17L57.16 21.16L57.16 21.17Q57.21 24.03 55.98 26.50L55.99 26.50L56.03 26.54Q56.37 26.25 57.21 26.01L57.31 26.11L57.27 26.07Q56.86 26.78 56.51 27.42L56.62 27.52L56.56 27.47Q57.48 27.19 59.75 26.82L59.82 26.88L59.70 26.77Q60.36 23.48 60.28 20.37L60.38 20.47L60.35 20.44Q60.27 19.84 61.03 19.38L60.94 19.29L61.11 19.46Q61.66 18.93 62.37 18.86L62.46 18.95L62.33 18.82Q62.61 18.78 62.87 18.90L62.87 18.90L62.94 18.97Q62.77 20.54 62.80 22.18L62.93 22.31L62.89 22.27Q62.96 23.93 63.28 25.54Z"/></svg>