<svg xmlns="http://www.w3.org/2000/svg" width="80" height="30" viewBox="0,0,80,30"><path fill="#222" d="M31.23 24.56L31.11 24.45L31.25 24.58Q30.00 24.56 28.70 24.68L28.61 24.58L28.64 24.61Q29.17 21.36 29.17 18.25L29.16 18.23L29.04 18.11Q29.15 15.06 28.73 11.71L28.61 11.59L28.75 11.73Q25.77 11.44 23.72 10.37L23.67 10.32L23.13 9.12L23.30 9.29Q23.09 8.89 22.70 8.10L22.76 8.17L22.72 8.12Q26.04 9.90 29.90 10.02L29.74 9.85L29.91 10.02Q33.65 10.10 37.15 8.78L37.14 8.77L37.15 8.77Q36.63 9.63 36.22 10.80L36.16 10.75L36.24 10.82Q33.91 11.65 31.17 11.77L31.19 11.80L31.16 11.77Q30.98 14.93 30.98 18.12L30.94 18.08L30.98 18.12Q31.03 21.35 31.22 24.55ZM37.44 8.18L37.57 8.32L37.45 8.19Q33.85 9.81 29.87 9.69L29.87 9.69L29.89 9.71Q25.46 9.45 22.18 7.54L22.29 7.65L22.20 7.55Q22.67 8.37 23.51 10.47L23.58 10.55L23.52 10.49Q23.94 10.69 24.75 11.06L24.78 11.09L24.68 10.99Q24.96 11.56 25.18 12.54L25.12 12.48L25.10 12.46Q26.55 12.98 28.51 13.13L28.50 13.12L28.58 13.20Q28.93 15.68 28.93 18.10L28.84 18.02L28.87 18.04Q28.81 21.44 28.30 24.89L28.23 24.82L28.36 24.95Q29.45 24.89 29.80 24.89L29.81 24.91L29.76 24.85Q29.84 25.13 29.81 25.56L29.66 25.42L29.79 25.55Q29.61 25.83 29.61 26.05L29.70 26.14L29.71 26.15Q30.50 26.14 31.48 26.19L31.33 26.03L31.41 26.11Q32.03 26.17 33.20 26.27L33.12 26.18L33.11 26.18Q32.31 23.00 32.24 19.67L32.26 19.70L32.25 19.68Q32.12 16.23 32.46 13.07L32.63 13.23L32.65 13.26Q35.17 12.89 37.20 12.10L37.04 11.94L37.04 11.94Q37.51 10.43 38.17 9.11L38.29 9.23L38.17 9.11Q37.30 9.53 36.78 9.73L36.85 9.80L36.82 9.76Q37.16 9.01 37.53 8.27Z"/><path fill="#333" d="M19.85 25.74L19.70 25.60L19.67 25.56Q18.47 25.47 17.08 25.37L17.01 25.31L17.01 25.30Q16.04 24.34 14.33 21.87L14.35 21.89L14.37 21.91Q12.91 23.85 11.37 25.42L11.31 25.36L10.02 25.66L10.10 25.74Q9.28 25.72 8.64 25.89L8.80 26.05L8.80 26.06Q11.37 23.28 13.30 20.64L13.45 20.80L13.29 20.63Q11.21 17.96 7.73 14.88L7.72 14.87L7.87 15.02Q9.25 15.44 10.99 15.71L10.91 15.63L10.89 15.62Q13.20 17.70 14.42 19.44L14.30 19.32L14.41 19.42Q15.73 17.42 17.50 15.81L17.49 15.80L17.60 15.91Q19.38 15.52 20.56 15.20L20.62 15.26L20.68 15.32Q17.82 17.73 15.45 20.66L15.33 20.55L15.37 20.59Q17.55 23.59 19.78 25.67ZM21.65 14.87L21.51 14.73L21.50 14.72Q19.77 15.39 17.50 15.61L17.49 15.61L17.37 15.49Q15.51 17.20 14.41 18.79L14.45 18.83L14.55 18.93Q13.83 18.11 12.78 16.84L12.78 16.85L12.76 16.95L12.70 16.88Q12.65 16.90 12.57 16.90L12.66 16.99L12.49 16.82Q12.03 16.31 10.97 15.38L10.98 15.39L11.02 15.43Q8.73 15.09 6.90 14.31L6.99 14.41L6.83 14.25Q10.40 17.35 12.99 20.65L13.04 20.70L13.14 20.80Q10.83 23.63 7.99 26.39L8.06 26.46L8.06 26.47Q8.15 26.33 10.40 25.79L10.36 25.75L10.47 25.86Q9.41 26.64 8.36 27.49L8.42 27.56L8.47 27.61Q10.44 26.93 12.47 26.81L12.57 26.91L12.46 26.80Q14.12 25.47 15.34 23.71L15.19 23.56L15.27 23.63Q16.14 24.73 16.92 25.49L17.02 25.59L16.94 25.51Q16.96 25.45 17.01 25.50L17.14 25.63L17.21 25.58L17.30 25.67Q18.11 26.38 18.96 27.06L18.77 26.87L18.78 26.88Q21.23 27.37 23.09 28.03L22.99 27.94L23.04 27.98Q19.02 25.07 16.65 21.74L16.66 21.75L16.76 21.85Q19.09 18.60 22.03 15.99L21.90 15.86L21.96 15.92Q21.38 16.17 20.75 16.32L20.71 16.28L19.42 16.58L19.35 16.51Q20.22 16.04 21.62 14.84Z"/><path d="M14 9 C60 2,47 5,66 3" stroke="#888" fill="none"/><path d="M14 10 C38 5,50 3,61 13" stroke="#444" fill="none"/><path fill="#333" d="M60.52 17.68L60.40 17.56L60.41 17.58Q59.28 17.55 58.49 18.46L58.56 18.54L58.50 18.48Q57.78 19.47 57.66 20.70L57.66 20.70L57.52 20.56Q57.52 22.03 58.22 22.65L58.17 22.61L58.19 22.62Q58.79 23.15 60.14 23.08L60.09 23.03L60.21 23.15Q61.53 23.02 62.24 22.58L62.22 22.56L62.21 22.55Q62.96 21.86 62.96 20.86L63.05 20.95L62.99 20.89Q63.03 20.69 62.98 20.44L62.86 20.32L62.84 20.29Q62.96 19.29 62.25 18.42L62.29 18.46L62.26 18.43Q61.54 17.55 60.46 17.63ZM60.29 24.87L60.27 24.85L60.14 24.72Q57.48 24.88 56.58 24.39L56.52 24.33L56.42 24.23Q55.91 23.89 55.79 22.79L55.61 22.61L55.71 22.71Q55.75 22.34 55.78 21.87L55.77 21.87L55.69 21.78Q55.81 21.20 55.81 20.91L55.71 20.81L55.86 20.95Q56.14 19.10 56.24 18.66L56.20 18.63L56.14 18.57Q56.51 17.39 57.05 16.49L56.97 16.41L56.95 16.39Q58.78 13.70 62.60 9.61L62.55 9.55L62.53 9.54Q64.34 9.44 65.76 8.93L65.65 8.82L65.63 8.80Q61.29 13.66 59.24 16.38L59.11 16.25L59.20 16.34Q59.92 16.10 60.75 16.10L60.72 16.07L60.69 16.05Q62.79 16.02 63.77 17.26L63.68 17.18L63.77 17.26Q64.59 18.28 64.81 20.56L64.92 20.67L64.94 20.68Q64.83 21.00 64.83 21.39L64.95 21.50L64.88 21.44Q64.99 23.55 63.57 24.23L63.51 24.18L63.50 24.16Q62.80 24.64 60.31 24.89ZM61.67 26.32L61.70 26.35L61.64 26.29Q62.57 26.36 63.84 26.41L63.87 26.44L63.77 26.34Q64.83 26.40 65.84 25.94L65.83 25.93L65.86 25.96Q66.59 25.47 66.59 24.32L66.61 24.34L66.49 24.22Q66.53 23.94 66.42 23.31L66.42 23.31L66.35 23.23Q66.41 22.77 66.41 22.47L66.37 22.43L66.34 22.41Q65.82 19.41 64.79 18.19L64.83 18.23L64.79 18.19Q64.65 18.03 64.56 17.88L64.50 17.82L64.32 17.69L64.32 17.72L64.42 17.81Q64.12 17.42 63.73 16.81L63.67 16.75L63.75 16.83Q63.15 16.21 61.88 15.91L61.92 15.95L61.81 15.84Q62.68 14.90 64.59 12.53L64.52 12.46L67.33 9.15L67.30 9.12Q66.19 9.57 64.65 10.06L64.73 10.14L64.79 10.21Q65.30 9.49 66.45 8.22L66.43 8.20L66.50 8.27Q64.96 8.95 62.46 9.32L62.51 9.37L62.50 9.36Q58.77 13.09 56.86 16.27L56.81 16.22L56.79 16.20Q55.79 17.80 55.42 21.81L55.61 22.00L55.51 21.90Q55.44 22.25 55.49 22.86L55.48 22.84L55.50 22.87Q55.65 24.09 56.36 24.68L56.31 24.63L56.25 24.57Q56.46 24.64 56.44 24.67L56.59 24.81L56.40 24.63Q56.71 25.28 57.22 25.55L57.28 25.60L57.35 25.67Q58.28 26.11 59.52 26.23L59.40 26.11L59.38 26.09Q59.44 26.15 61.69 26.34ZM61.46 19.04L61.49 19.07L61.53 19.11Q61.98 19.12 62.59 19.44L62.60 19.45L62.58 19.43Q62.80 20.04 62.80 20.46L62.66 20.31L62.70 20.35Q62.79 21.52 62.18 22.15L62.33 22.31L62.25 22.23Q61.50 22.62 60.15 22.82L60.16 22.83L60.16 22.83Q59.30 22.90 58.96 22.73L58.98 22.75L58.92 22.69Q58.75 22.35 58.75 22.15L58.84 22.25L58.86 22.27Q58.64 20.08 60.52 19.25L60.64 19.37L60.57 19.30Q60.96 18.98 61.45 19.03Z"/><path fill="#111" d="M41.03 29.25L40.96 29.18L40.99 29.21Q40.34 29.30 39.12 29.49L39.19 29.56L39.06 29.44Q40.00 28.14 40.66 27.31L40.57 27.22L40.58 27.23Q41.73 27.45 41.83 27.45L41.86 27.48L41.93 27.55Q42.07 27.55 42.41 27.47L42.42 27.48L42.35 27.41Q42.91 27.48 43.03 27.48L43.04 27.49L42.99 27.44Q44.69 27.33 44.64 25.93L44.48 25.77L44.59 25.88Q44.57 24.93 44.49 20.92L44.50 20.92L44.51 20.93Q44.44 18.61 44.49 15.95L44.57 16.03L45.34 15.76L45.36 15.78Q45.80 15.74 46.24 15.59L46.25 15.60L46.14 15.49Q46.16 18.49 46.18 21.31L46.17 21.29L46.07 21.19Q46.09 24.00 46.43 26.82L46.47 26.86L46.50 26.89Q46.55 27.08 46.55 27.25L46.61 27.32L46.59 27.29Q46.47 28.23 45.39 28.47L45.54 28.62L45.46 28.54Q43.46 28.79 40.99 29.20ZM45.25 13.55L43.93 11.60L43.93 11.59Q44.63 10.72 45.80 8.94L45.77 8.91L45.90 9.03Q46.31 9.59 47.16 10.76L47.15 10.75L45.35 13.65ZM47.28 30.75L47.22 30.69L47.33 30.80Q47.70 30.86 48.19 30.64L48.12 30.57L48.12 30.56Q48.39 30.17 48.39 29.87L48.29 29.78L48.36 29.85Q48.21 29.48 48.14 29.09L48.21 29.17L48.17 29.12Q47.45 25.15 47.45 20.06L47.44 20.04L47.34 19.94Q47.35 18.12 47.45 16.26L47.38 16.19L47.45 16.26Q47.17 16.45 46.44 16.64L46.35 16.56L46.39 16.59Q46.43 16.32 46.46 15.98L46.45 15.97L46.53 15.29L46.43 15.19Q45.34 15.62 44.19 15.65L44.15 15.61L44.28 15.73Q44.26 18.53 44.29 20.83L44.28 20.82L44.39 25.91L44.22 25.74Q44.28 27.01 42.88 27.09L43.00 27.21L42.90 27.10Q42.85 27.20 42.52 27.24L42.41 27.13L42.58 27.30Q42.24 27.32 42.07 27.32L41.97 27.22L41.92 27.17Q41.68 27.23 40.68 26.96L40.61 26.90L40.68 26.97Q40.46 27.43 39.75 28.50L39.67 28.43L38.58 29.81L38.77 30.00Q39.17 29.71 40.22 29.47L40.34 29.59L40.09 30.09L39.59 30.35L39.72 30.48Q41.21 30.41 42.07 30.46L41.98 30.37L42.05 30.44Q43.55 30.57 47.36 30.84ZM45.32 14.11L45.28 14.07L45.60 13.82L45.45 13.67Q45.77 14.04 46.38 15.07L46.39 15.08L46.29 14.98Q47.36 13.06 48.36 11.08L48.44 11.16L48.45 11.16Q47.80 10.12 47.18 9.29L47.02 9.13L47.04 9.15Q46.93 9.31 46.71 9.65L46.70 9.63L46.81 9.74Q46.56 9.35 45.92 8.52L45.93 8.53L45.87 8.46Q45.06 9.44 43.56 11.59L43.55 11.58L43.61 11.64Q44.22 12.45 45.33 14.11Z"/><path d="M5 15 C37 10,27 23,77 3" stroke="#666" fill="none"/></svg>