<svg xmlns="http://www.w3.org/2000/svg" width="80" height="30" viewBox="0,0,80,30"><path fill="#333" d="M13.47 24.70L13.62 24.85L13.64 24.87Q11.32 24.85 10.27 24.51L10.30 24.54L10.30 24.54Q8.97 24.07 8.78 21.89L8.85 21.97L9.83 21.34L9.82 21.33Q10.21 20.90 10.70 20.58L10.69 20.58L10.63 20.52Q10.50 21.79 11.53 22.57L11.60 22.64L11.57 22.60Q12.31 23.17 13.68 23.05L13.72 23.10L13.72 23.10Q16.51 22.80 16.39 20.53L16.40 20.53L16.45 20.58Q16.40 19.19 14.71 18.41L14.72 18.41L14.61 18.31Q12.82 17.67 11.31 16.89L11.21 16.79L11.39 16.97Q9.66 16.02 9.02 13.01L9.05 13.04L8.98 12.97Q8.88 12.65 8.81 12.16L8.93 12.28L8.92 12.27Q8.91 11.83 8.96 11.46L8.79 11.29L8.87 11.36Q8.89 10.26 9.69 9.96L9.76 10.03L9.73 10.00Q11.33 9.50 13.90 9.62L13.92 9.64L13.90 9.62Q15.10 9.72 15.61 9.76L15.62 9.77L15.58 9.73Q16.52 9.84 17.20 10.13L17.17 10.10L17.16 10.09Q18.65 10.53 18.80 12.12L18.79 12.10L18.64 11.96Q18.03 12.47 16.61 13.33L16.56 13.28L16.66 13.38Q16.37 11.42 13.55 11.42L13.57 11.44L13.46 11.33Q12.33 11.43 11.70 11.87L11.65 11.82L11.72 11.89Q10.95 12.20 11.10 13.35L11.04 13.29L11.15 13.40Q11.20 14.70 13.11 15.68L13.11 15.68L13.07 15.64Q13.49 15.86 16.37 16.91L16.38 16.92L16.31 16.85Q18.08 17.89 18.35 20.70L18.27 20.62L18.43 20.78Q18.31 20.76 18.36 21.57L18.48 21.69L18.36 21.57Q18.36 23.30 17.35 24.01L17.40 24.05L17.49 24.15Q16.17 24.64 13.48 24.71ZM15.02 26.30L14.99 26.28L14.95 26.23Q15.97 26.37 17.24 26.37L17.21 26.34L17.33 26.46Q18.58 26.36 19.38 26.09L19.37 26.07L19.37 26.07Q20.22 25.60 20.17 24.45L20.14 24.43L20.08 24.36Q20.18 23.85 19.93 22.53L19.97 22.56L19.95 22.54Q19.19 19.36 17.85 18.16L18.01 18.33L18.02 18.34Q17.41 17.22 16.56 16.75L16.60 16.80L13.18 15.46L13.20 15.48Q12.93 15.30 12.63 15.15L12.62 15.14L12.70 15.05L12.66 14.79L12.61 14.74Q12.39 13.71 13.13 13.32L13.26 13.45L13.14 13.34Q13.74 13.07 14.84 12.95L14.75 12.86L14.74 12.86Q15.50 12.81 16.24 13.11L16.24 13.11L16.35 13.22Q16.39 13.28 16.51 13.82L16.39 13.70L16.53 13.83Q16.57 13.65 16.88 13.51L16.79 13.41L16.95 13.57Q17.25 14.00 17.33 14.73L17.41 14.81L17.44 14.84Q17.45 14.78 19.80 13.12L19.88 13.20L19.80 13.12Q19.69 11.49 18.76 11.05L18.66 10.95L18.72 11.01Q18.33 10.18 17.40 9.84L17.42 9.86L17.38 9.81Q15.93 9.32 13.87 9.32L13.99 9.44L13.99 9.44Q10.76 9.37 9.56 9.81L9.51 9.76L9.46 9.70Q8.67 10.06 8.59 11.14L8.69 11.24L8.53 11.07Q8.62 11.53 8.89 12.95L8.79 12.85L8.87 12.93Q9.23 15.28 10.63 16.72L10.74 16.84L10.69 16.79Q11.24 17.92 12.20 18.36L12.08 18.23L12.09 18.25Q13.06 18.69 15.59 19.70L15.63 19.74L15.72 19.85L16.10 20.04L16.05 20.01L16.11 20.08Q16.28 20.41 16.30 20.63L16.23 20.56L16.17 20.50Q16.34 22.84 13.81 22.94L13.67 22.80L13.75 22.88Q12.97 22.86 12.14 22.62L12.18 22.66L12.09 22.57Q11.95 22.10 11.95 21.64L11.90 21.59L11.92 21.61Q11.97 21.49 11.99 21.32L12.05 21.37L11.90 21.23Q11.77 21.51 11.26 21.83L11.21 21.78L11.20 21.77Q10.80 20.98 10.90 20.10L10.91 20.11L11.07 20.27Q9.56 20.86 8.53 21.77L8.65 21.89L8.63 21.87Q8.73 22.45 8.77 23.12L8.77 23.11L8.59 22.94Q8.97 24.22 9.81 24.71L9.81 24.72L9.83 24.73Q10.61 25.90 12.25 26.15L12.12 26.02L12.07 25.97Q13.19 26.23 15.07 26.35Z"/><path d="M3 12 C29 22,25 18,77 10" stroke="#444" fill="none"/><path fill="#222" d="M59.81 24.56L59.75 24.50L59.91 24.66Q57.16 24.24 55.98 23.31L56.07 23.39L56.00 23.32Q54.82 22.39 54.55 20.46L54.45 20.35L54.48 20.38Q54.60 20.28 54.38 17.22L54.25 17.09L54.30 17.14Q54.34 16.40 54.29 15.59L54.19 15.49L54.29 15.59Q54.23 12.40 55.65 11.27L55.62 11.24L55.56 11.18Q57.31 9.87 62.30 9.43L62.32 9.46L62.22 9.35Q63.11 9.29 64.16 9.31L64.22 9.36L64.14 9.29Q64.14 9.29 66.05 9.29L66.07 9.31L66.20 9.44Q66.63 9.33 67.73 9.43L67.73 9.43L67.83 9.53Q67.38 10.00 66.71 11.99L66.83 12.10L66.81 12.08Q65.40 11.23 63.46 11.23L63.49 11.25L63.56 11.32Q63.04 11.30 62.53 11.35L62.52 11.34L62.42 11.23Q59.24 11.63 57.62 12.90L57.53 12.81L57.68 12.96Q56.22 13.82 56.12 15.98L56.26 16.11L56.14 16.00Q56.12 16.40 56.15 17.20L56.29 17.34L56.13 17.19Q56.36 20.45 57.90 21.80L57.84 21.73L57.81 21.70Q59.27 23.02 62.48 23.22L62.49 23.23L62.36 23.10Q64.38 23.20 66.31 22.05L66.38 22.12L66.40 22.15Q66.69 23.80 67.08 24.68L67.11 24.71L67.14 24.74Q65.83 24.96 64.78 24.93L64.78 24.93L64.69 24.84Q61.92 24.90 59.91 24.66ZM69.57 27.00L69.49 26.92L69.55 26.99Q68.36 25.01 67.92 23.34L67.93 23.35L67.88 23.31Q67.62 23.49 66.98 23.73L67.10 23.85L67.07 23.82Q66.94 23.39 66.81 22.85L66.70 22.74L66.55 21.73L66.39 21.57Q64.27 22.88 62.26 22.81L62.41 22.96L62.45 22.99Q59.56 22.72 58.07 21.60L58.04 21.56L58.17 21.69Q57.44 20.52 57.48 18.64L57.43 18.58L57.37 18.52Q57.55 15.72 59.15 14.35L59.15 14.36L59.08 14.29Q60.57 13.18 63.58 12.79L63.59 12.80L63.52 12.73Q64.03 12.66 64.50 12.66L64.46 12.62L64.48 12.63Q66.29 12.66 67.64 13.64L67.64 13.64L67.70 13.71Q67.88 12.19 68.66 10.11L68.80 10.25L68.74 10.19Q68.52 10.15 68.17 10.11L68.19 10.14L68.20 10.15Q67.76 10.02 67.59 10.02L67.69 10.13L67.69 10.12Q67.72 9.68 68.01 9.05L68.17 9.20L68.07 9.10Q67.92 9.10 66.31 9.05L66.40 9.14L66.31 9.05Q64.71 9.01 64.30 9.03L64.34 9.08L64.28 9.01Q57.59 9.30 55.37 10.96L55.43 11.03L55.37 10.96Q53.98 12.05 53.98 14.57L53.97 14.56L53.98 14.57Q54.07 15.37 54.14 17.10L54.13 17.09L54.04 17.01Q54.20 19.37 54.35 20.47L54.38 20.50L54.36 20.48Q54.57 22.45 55.60 23.43L55.63 23.46L55.70 23.53Q55.87 23.82 56.67 24.56L56.79 24.67L56.81 24.70Q58.83 25.76 62.21 26.25L62.28 26.32L62.14 26.18Q66.35 26.86 69.55 26.99Z"/><path fill="#222" d="M47.57 17.80L47.67 17.90L47.65 17.88Q46.83 17.33 46.42 17.36L46.50 17.45L46.48 17.42Q45.68 17.55 45.01 18.20L44.88 18.07L44.99 18.18Q44.17 18.68 44.24 19.56L44.39 19.71L44.37 19.69Q44.54 22.45 43.98 25.37L44.03 25.42L43.99 25.38Q42.56 25.66 41.85 26.00L41.79 25.95L41.79 25.95Q42.71 23.22 42.56 20.36L42.67 20.47L42.66 20.45Q42.55 17.60 41.45 14.99L41.43 14.97L41.43 14.96Q42.05 15.29 43.52 15.71L43.61 15.80L43.89 17.45L43.90 17.46Q44.33 15.59 47.07 15.59L47.05 15.57L47.10 15.61Q47.45 15.68 47.65 15.68L47.51 15.54L47.65 15.68Q48.38 15.57 49.18 16.01L49.32 16.15L49.15 15.98Q48.46 17.00 47.73 17.96ZM48.73 19.21L48.83 19.20L48.75 19.12Q49.27 18.32 50.34 16.76L50.34 16.76L50.38 16.79Q50.07 16.56 49.10 16.39L49.16 16.45L49.05 16.35Q49.30 16.18 49.59 15.78L49.62 15.81L49.57 15.77Q48.49 15.32 47.24 15.44L47.15 15.35L47.22 15.42Q45.91 15.48 45.45 15.66L45.37 15.58L45.52 15.73Q44.57 15.95 44.06 16.66L44.02 16.63L43.97 16.16L43.87 15.64L43.79 15.57Q42.27 15.32 41.00 14.46L40.88 14.34L41.05 14.51Q42.27 17.18 42.42 20.31L42.58 20.47L42.52 20.41Q42.63 23.53 41.50 26.44L41.61 26.55L41.47 26.41Q42.25 26.19 42.82 25.99L42.72 25.89L42.70 25.88Q42.49 26.55 42.18 27.24L42.31 27.37L42.27 27.33Q44.12 26.80 45.49 26.73L45.48 26.72L45.59 23.80L45.68 23.89Q45.64 22.34 45.64 20.89L45.58 20.83L45.76 21.01Q45.62 20.11 46.21 19.49L46.32 19.59L46.26 19.54Q46.76 18.83 47.50 18.78L47.55 18.83L47.64 18.92Q48.03 18.82 48.49 19.26L48.51 19.28L48.76 19.23ZM45.43 17.96L45.47 17.95L45.38 17.94L45.52 18.05Z"/><path d="M11 26 C35 2,23 22,73 15" stroke="#444" fill="none"/><path d="M4 13 C51 18,24 13,61 4" stroke="#888" fill="none"/><path fill="#222" d="M29.64 13.89L29.79 14.05L29.73 13.99Q27.59 13.90 26.41 13.21L26.42 13.22L26.46 13.26Q28.09 12.39 31.22 9.67L31.18 9.63L31.16 9.61Q31.65 9.52 32.48 9.13L32.60 9.25L32.53 9.17Q31.67 12.99 31.60 17.08L31.52 17.00L31.67 17.15Q31.57 21.21 32.26 25.13L32.13 25.00L32.23 25.10Q31.09 24.57 29.72 24.50L29.79 24.57L29.72 24.49Q29.61 21.79 29.61 19.18L29.61 19.17L29.62 19.18Q29.65 16.57 29.67 13.93ZM29.56 15.50L29.38 24.70L29.38 24.69Q30.30 24.83 30.91 24.96L30.83 24.87L30.91 24.95Q30.87 25.30 30.99 26.18L31.14 26.33L31.01 26.20Q32.83 26.53 34.40 27.98L34.53 28.11L34.51 28.08Q32.89 23.48 32.86 18.68L32.74 18.56L32.77 18.59Q32.76 13.83 33.93 9.18L33.93 9.18L33.95 9.20Q33.61 9.47 32.58 10.18L32.64 10.24L32.52 10.12Q32.63 9.61 32.82 8.63L32.98 8.79L32.86 8.67Q32.14 9.30 31.21 9.54L31.18 9.51L31.13 9.46Q28.64 11.70 25.88 13.16L25.92 13.20L25.98 13.27Q26.88 13.97 28.40 14.19L28.27 14.06L28.44 14.23Q27.96 14.51 27.13 15.20L27.01 15.08L27.14 15.21Q27.99 15.35 29.41 15.35L29.45 15.39Z"/></svg>