<svg xmlns="http://www.w3.org/2000/svg" width="80" height="30" viewBox="0,0,80,30"><path d="M19 18 C50 8,51 23,62 10" stroke="#444" fill="none"/><path d="M15 3 C56 2,23 24,76 18" stroke="#777" fill="none"/><path d="M5 20 C41 19,34 14,65 8" stroke="#777" fill="none"/><path fill="#444" d="M63.40 25.44L63.41 25.45L61.49 25.37L61.41 25.29Q60.02 25.37 59.51 25.30L59.38 25.18L59.43 25.22Q58.33 25.07 57.57 24.51L57.53 24.47L57.53 24.47Q56.68 23.54 56.53 21.39L56.53 21.40L56.54 21.40Q56.48 21.05 56.43 20.26L56.37 20.21L56.37 20.21Q56.53 20.09 56.48 19.38L56.38 19.28L56.28 19.19Q56.42 18.81 56.44 18.34L56.31 18.21L56.37 18.27Q56.45 16.98 57.11 16.49L57.20 16.58L57.14 16.52Q58.51 15.90 61.61 15.75L61.50 15.64L61.52 15.67Q62.75 15.52 63.26 15.52L63.24 15.50L63.36 15.61Q64.27 15.57 65.15 15.77L65.21 15.83L65.11 15.73Q64.79 16.58 64.45 17.76L64.38 17.69L64.51 17.82Q64.09 17.77 63.77 17.74L63.76 17.74L63.76 17.73Q63.82 17.84 63.48 17.76L63.44 17.73L62.70 17.45L62.72 17.47Q62.10 17.37 61.71 17.39L61.71 17.40L61.81 17.50Q58.62 17.39 58.23 19.20L58.24 19.21L58.31 19.28Q58.04 19.92 58.09 20.53L58.08 20.51L58.07 20.51Q58.31 22.31 59.10 23.01L59.00 22.91L59.07 22.97Q59.89 23.70 61.55 23.72L61.50 23.67L61.61 23.78Q62.49 23.73 62.96 23.54L62.98 23.56L63.59 23.19L63.51 23.11Q64.04 23.15 64.41 23.10L64.25 22.95L64.37 23.07Q64.54 24.24 64.79 25.07L64.67 24.96L64.68 24.97Q64.62 25.30 63.47 25.52ZM65.43 27.28L65.44 27.29L65.58 27.43Q65.82 27.45 66.36 27.50L66.35 27.49L66.36 27.50Q66.62 27.37 66.84 27.00L66.84 27.00L67.00 27.16Q66.12 25.72 65.80 24.37L65.82 24.39L65.71 24.29Q65.60 24.36 65.30 24.36L65.37 24.43L65.25 24.32Q64.93 24.26 64.68 24.38L64.81 24.51L64.83 24.53Q64.65 23.76 64.55 22.85L64.49 22.79L64.51 22.81Q64.01 22.65 63.23 23.02L63.35 23.14L63.26 23.06Q62.45 23.39 62.13 23.39L62.15 23.41L62.25 23.52Q61.90 23.48 61.51 23.46L61.41 23.36L61.53 23.48Q60.83 23.34 59.56 22.97L59.59 23.01L59.55 22.97Q59.33 22.50 59.35 21.76L59.43 21.85L59.54 21.95Q59.64 19.21 62.82 18.87L62.74 18.79L62.77 18.82Q63.26 18.87 64.15 19.10L64.12 19.07L64.04 18.99Q64.94 19.22 65.40 19.20L65.38 19.18L65.40 19.20Q65.71 17.80 66.15 16.62L66.11 16.58L66.17 16.64Q65.86 16.50 65.61 16.45L65.59 16.43L65.08 16.36L65.04 16.32Q65.24 16.08 65.48 15.52L65.47 15.50L65.48 15.51Q64.50 15.29 63.50 15.29L63.43 15.23L63.47 15.26Q61.93 15.26 59.11 15.51L59.14 15.53L59.27 15.66Q57.88 15.62 56.87 16.25L56.94 16.32L56.88 16.26Q56.08 16.85 56.08 18.07L56.19 18.19L56.18 18.18Q56.07 18.33 56.14 19.12L56.22 19.20L56.15 19.13Q56.28 19.87 56.26 20.26L56.30 20.30L56.19 20.20Q56.34 21.54 56.81 23.94L56.76 23.89L56.76 23.90Q56.97 24.40 57.29 24.72L57.32 24.75L57.46 24.89L57.52 24.93L57.55 24.95Q58.21 26.33 60.73 26.72L60.59 26.58L60.63 26.62Q62.71 26.98 64.42 27.15L64.47 27.20L64.40 27.13Q64.91 27.18 65.50 27.35Z"/><path fill="#222" d="M13.17 16.59L13.23 16.66L13.17 16.60Q11.74 16.61 10.92 17.58L11.03 17.68L11.11 17.76Q10.16 18.61 10.09 20.08L10.12 20.11L10.15 20.13Q10.08 21.85 10.62 22.46L10.65 22.50L10.55 22.40Q11.39 23.33 12.88 23.23L12.79 23.14L12.82 23.17Q15.76 22.93 16.01 21.00L15.97 20.96L16.00 21.00Q16.05 20.45 16.05 19.94L16.06 19.95L16.05 19.94Q15.96 18.58 15.23 17.60L15.23 17.60L15.41 17.78Q14.48 16.63 13.23 16.65ZM16.45 23.25L16.44 23.24L16.32 23.12Q15.35 24.48 12.54 24.63L12.66 24.75L12.66 24.74Q10.02 24.90 8.96 24.19L8.83 24.05L8.81 24.03Q8.21 23.45 8.11 22.35L8.26 22.50L8.21 22.45Q8.23 21.78 8.35 20.59L8.20 20.43L8.26 20.50Q8.61 17.77 9.40 16.59L9.47 16.66L9.28 16.47Q10.38 14.94 12.86 14.96L12.82 14.92L12.90 15.00Q14.47 14.98 15.93 16.47L15.92 16.46L15.97 16.51Q16.04 12.76 17.06 8.57L17.12 8.63L17.07 8.58Q18.34 8.35 19.54 7.82L19.49 7.77L19.44 7.72Q17.81 12.01 17.64 16.51L17.66 16.54L17.55 16.42Q17.53 21.20 18.90 25.43L18.86 25.40L18.78 25.31Q17.80 24.99 16.69 24.75L16.74 24.79L16.74 24.80Q16.43 23.84 16.33 23.13ZM18.38 26.75L18.34 26.71L18.42 26.79Q19.63 27.02 21.27 28.00L21.25 27.98L21.33 28.06Q18.93 23.51 18.83 18.17L18.88 18.22L18.86 18.20Q18.80 12.96 20.79 8.21L20.79 8.21L20.64 8.06Q20.19 8.35 19.26 8.76L19.31 8.81L19.30 8.80Q19.61 8.15 20.00 7.37L19.98 7.35L19.94 7.31Q18.53 8.12 16.96 8.49L16.79 8.33L16.91 8.45Q16.02 12.20 15.85 16.12L15.80 16.07L15.83 16.10Q14.56 14.88 12.94 14.80L12.86 14.72L12.90 14.76Q10.77 14.76 9.55 16.11L9.55 16.11L9.41 15.96Q8.28 17.45 8.01 20.46L8.19 20.65L8.11 20.57Q7.95 22.34 7.95 22.61L7.94 22.60L7.96 22.62Q8.04 23.77 8.77 24.46L8.70 24.39L8.62 24.30Q8.91 24.59 9.03 24.64L8.98 24.59L9.37 25.10L9.35 25.08Q9.97 25.95 11.88 26.12L11.84 26.08L11.73 25.98Q13.21 26.13 14.09 26.18L14.11 26.20L14.06 26.15Q16.81 26.33 17.91 25.47L17.83 25.40L18.00 25.56Q18.10 26.03 18.40 26.76ZM14.31 18.18L14.34 18.20L14.22 18.09Q15.02 18.23 15.56 18.55L15.47 18.46L15.51 18.49Q15.81 19.31 15.86 19.97L15.89 20.00L15.89 20.00Q16.08 22.71 12.85 22.93L12.77 22.85L12.83 22.91Q12.21 22.88 11.50 22.71L11.53 22.74L11.47 22.67Q11.50 22.46 11.45 22.12L11.42 22.09L11.37 22.04Q11.34 21.62 11.37 21.23L11.38 21.24L11.30 21.16Q11.56 19.03 13.25 18.39L13.26 18.40L13.21 18.34Q13.85 18.14 14.29 18.16Z"/><path fill="#333" d="M45.68 17.43L45.64 17.38L45.68 17.43Q44.14 17.51 43.31 18.24L43.17 18.10L43.27 18.20Q42.23 18.87 42.35 20.49L42.35 20.49L42.45 20.58Q42.68 22.53 43.44 23.22L43.25 23.03L43.31 23.09Q44.39 24.04 45.74 23.95L45.71 23.92L45.57 23.78Q46.93 23.77 47.84 22.96L47.96 23.09L47.88 23.00Q48.74 22.28 48.87 20.64L48.99 20.76L48.92 20.70Q49.08 17.45 45.63 17.37ZM45.58 25.47L45.66 25.56L44.65 25.55L44.54 25.45Q42.74 25.48 41.78 24.57L41.83 24.61L41.87 24.66Q41.21 23.97 41.04 22.72L40.90 22.59L40.91 22.60Q40.89 21.97 40.80 20.55L40.86 20.61L40.86 20.61Q40.72 19.88 40.65 18.44L40.76 18.55L40.60 18.39Q40.66 17.30 41.27 16.57L41.22 16.52L41.32 16.61Q42.39 15.61 45.42 15.70L45.32 15.60L45.32 15.60Q48.63 15.85 49.81 16.83L49.74 16.77L49.77 16.79Q50.68 17.53 50.56 19.59L50.47 19.51L50.50 19.53Q50.35 21.81 50.31 22.08L50.29 22.07L50.34 22.11Q50.27 23.71 49.41 24.46L49.32 24.38L49.28 24.33Q48.08 25.53 45.63 25.53ZM48.52 26.95L48.62 27.05L48.66 27.09Q49.63 27.13 50.85 27.03L50.69 26.87L50.71 26.88Q51.17 26.98 51.17 26.88L51.08 26.79L51.15 26.86Q51.16 26.83 51.14 26.73L51.01 26.60L51.09 26.68Q51.03 26.54 51.03 26.47L51.10 26.54L51.12 26.57Q51.00 26.27 51.22 26.07L51.23 26.09L51.25 26.11Q51.78 25.34 51.78 24.11L51.76 24.09L51.79 24.12Q51.75 23.48 51.69 21.92L51.74 21.97L51.85 22.08Q51.65 20.39 51.55 19.68L51.57 19.70L51.62 19.75Q51.39 18.39 50.80 17.65L50.86 17.72L50.52 17.44L50.53 17.46Q50.44 17.05 49.93 16.46L49.95 16.48L50.05 16.58Q48.50 15.40 45.34 15.40L45.35 15.41L44.19 15.37L44.29 15.48Q42.04 15.36 40.94 16.24L41.08 16.38L41.08 16.38Q40.50 17.07 40.53 18.37L40.38 18.22L40.50 18.35Q40.53 18.64 40.62 19.45L40.53 19.36L40.60 19.43Q40.58 20.14 40.56 20.43L40.73 20.60L40.61 20.48Q40.69 22.38 40.74 22.67L40.81 22.74L40.87 22.79Q41.01 24.07 41.60 24.80L41.64 24.84L41.64 24.89L41.77 25.02Q42.32 26.62 44.72 26.89L44.65 26.82L44.74 26.91Q45.16 26.85 48.54 26.97ZM46.86 18.91L46.86 18.90L46.89 18.93Q47.38 18.89 48.46 19.23L48.53 19.30L48.60 19.37Q48.74 19.76 48.72 20.71L48.76 20.75L48.79 20.79Q48.60 22.89 46.74 23.38L46.83 23.47L46.76 23.41Q46.24 23.47 45.58 23.54L45.68 23.64L45.67 23.64Q45.00 23.67 43.90 23.28L43.90 23.29L43.79 23.18Q43.79 22.88 43.82 21.93L43.74 21.85L43.74 21.85Q43.74 20.31 44.62 19.65L44.72 19.75L44.60 19.63Q45.14 19.02 46.78 18.82Z"/><path fill="#222" d="M34.86 18.37L34.89 18.40L34.86 18.36Q35.06 18.24 35.03 17.98L34.99 17.93L34.92 17.86Q34.87 17.62 34.67 17.49L34.81 17.63L34.70 17.52Q34.21 17.12 33.64 17.22L33.75 17.33L33.69 17.27Q32.92 17.18 31.87 17.89L31.95 17.97L31.88 17.91Q31.10 18.62 31.10 19.38L31.07 19.35L31.08 19.36Q30.99 20.08 30.99 22.21L30.97 22.18L31.03 22.25Q31.02 23.90 31.12 25.20L31.14 25.22L31.14 25.22Q30.11 25.29 30.11 25.29L30.02 25.20L30.07 25.25Q29.30 25.09 28.83 25.14L28.94 25.24L28.88 25.18Q29.21 23.63 29.26 22.19L29.30 22.23L29.21 22.14Q29.39 19.23 28.97 18.40L29.01 18.44L28.95 18.38Q28.71 17.94 28.34 17.74L28.30 17.70L28.40 17.80Q27.93 17.40 26.92 17.33L26.83 17.24L26.80 17.21Q25.45 17.01 25.11 18.04L25.13 18.06L25.12 18.05Q25.19 18.53 25.26 18.85L25.24 18.83L25.24 18.83Q25.53 20.47 25.31 22.25L25.47 22.41L25.38 22.32Q25.19 24.14 24.29 25.71L24.35 25.77L24.32 25.74Q23.67 25.85 22.32 26.12L22.36 26.16L22.38 26.17Q23.86 23.96 23.86 21.19L23.93 21.26L23.85 21.19Q23.97 17.53 21.37 14.82L21.27 14.71L21.32 14.76Q21.75 14.90 22.36 15.05L22.39 15.07L23.44 15.27L23.59 15.42Q23.82 15.74 24.38 16.82L24.35 16.79L24.34 16.78Q24.41 15.53 25.98 15.51L25.99 15.52L25.96 15.49Q26.08 15.49 26.72 15.54L26.87 15.68L26.77 15.59Q30.09 15.89 30.82 17.70L30.69 17.57L30.70 17.58Q31.78 15.85 35.01 15.50L35.13 15.62L34.99 15.48Q35.46 15.40 36.03 15.47L36.18 15.62L36.18 15.62Q37.51 15.66 37.41 16.66L37.32 16.57L37.44 16.69Q37.44 17.15 37.27 17.64L37.16 17.54L37.16 17.53Q36.33 19.54 36.48 21.82L36.46 21.80L36.49 21.83Q36.64 24.08 37.86 25.89L37.88 25.91L37.82 25.85Q36.79 25.68 35.61 25.53L35.46 25.38L35.44 25.36Q34.81 23.87 34.69 22.08L34.71 22.11L34.73 22.12Q34.43 20.12 34.85 18.36ZM35.48 25.79L35.47 25.78L35.30 25.61Q35.92 25.82 36.78 25.94L36.74 25.90L36.71 25.87Q36.97 26.25 37.71 27.16L37.74 27.19L37.81 27.26Q39.60 27.53 40.94 27.95L41.01 28.01L40.98 27.99Q37.74 25.45 37.56 21.27L37.53 21.23L37.69 21.39Q37.48 19.88 37.87 18.66L37.93 18.72L37.90 18.69Q38.12 18.20 38.12 17.73L38.07 17.69L38.14 17.76Q38.11 17.14 37.72 16.77L37.78 16.83L37.76 16.79L37.68 16.70Q37.68 16.34 37.63 16.03L37.77 16.16L37.73 16.12Q37.56 15.68 37.26 15.51L37.25 15.49L37.26 15.51Q36.89 15.26 36.33 15.24L36.28 15.18L36.25 15.16Q34.51 15.17 32.79 15.79L32.79 15.79L32.78 15.77Q31.50 16.21 30.74 17.11L30.74 17.11L30.66 17.03Q29.76 15.54 26.65 15.32L26.62 15.29L26.65 15.32Q26.12 15.21 25.85 15.21L26.02 15.38L25.93 15.28Q24.70 15.37 24.30 16.18L24.18 16.06L24.30 16.18Q24.02 15.77 23.58 15.08L23.52 15.03L23.65 15.16Q22.09 14.85 20.82 14.43L20.72 14.33L20.74 14.35Q23.68 17.12 23.68 21.16L23.65 21.13L23.61 21.09Q23.63 24.15 21.79 26.37L21.83 26.40L21.96 26.54Q22.22 26.41 22.54 26.36L22.50 26.32L23.10 26.19L23.12 26.20Q22.66 26.87 21.95 27.65L21.91 27.61L21.87 27.58Q23.00 27.46 25.01 27.07L25.08 27.14L25.01 27.07Q26.78 24.48 26.78 21.33L26.67 21.21L26.69 21.24Q26.77 20.80 26.73 20.27L26.71 20.25L26.66 20.20Q26.67 19.77 27.31 19.25L27.26 19.21L27.29 19.26L27.31 19.29Q27.70 18.99 28.46 18.91L28.45 18.91L28.41 18.87Q28.78 18.97 28.98 18.97L28.85 18.85L28.96 19.07L28.90 19.01Q29.14 20.82 29.06 22.33L28.97 22.24L28.98 22.26Q29.04 23.85 28.72 25.56L28.59 25.44L28.67 25.51Q29.37 25.55 29.37 25.55L29.23 25.41L29.20 25.38Q30.18 25.43 29.96 25.43L29.91 25.38L29.93 25.41Q30.04 25.83 30.02 26.13L30.02 26.13L29.89 26.00Q29.86 26.28 29.86 26.60L30.04 26.78L31.59 26.74L31.64 26.79Q32.27 26.62 33.08 26.67L33.13 26.72L33.21 26.80Q32.11 24.31 32.23 20.49L32.33 20.58L32.22 20.47Q32.27 19.79 33.03 19.30L33.08 19.35L33.11 19.38Q33.64 18.81 34.44 18.68L34.56 18.80L34.60 18.64L34.71 18.75Q34.49 20.05 34.49 21.32L34.39 21.23L34.31 21.15Q34.31 23.57 35.29 25.60ZM31.82 18.27L31.89 18.19L31.83 18.34L31.88 18.32Z"/></svg>