<svg xmlns="http://www.w3.org/2000/svg" width="80" height="30" viewBox="0,0,80,30"><path fill="#222" d="M14.58 17.53L14.54 17.48L14.51 17.46Q12.86 17.42 12.03 18.16L11.97 18.10L12.00 18.13Q11.07 18.91 11.19 20.53L11.16 20.50L11.22 20.55Q11.48 22.53 12.24 23.21L12.05 23.03L12.06 23.03Q13.20 24.05 14.54 23.95L14.50 23.91L14.49 23.90Q15.79 23.83 16.69 23.02L16.73 23.06L16.70 23.02Q17.59 22.33 17.71 20.69L17.75 20.72L17.68 20.65Q17.92 17.49 14.47 17.42ZM14.34 25.44L14.33 25.43L13.42 25.53L13.35 25.45Q11.60 25.54 10.65 24.63L10.56 24.55L10.61 24.59Q10.02 23.98 9.85 22.73L9.70 22.59L9.80 22.68Q9.76 22.03 9.66 20.62L9.58 20.53L9.53 20.49Q9.46 19.83 9.39 18.38L9.39 18.38L9.55 18.54Q9.39 17.24 10.01 16.50L10.13 16.62L10.06 16.56Q11.18 15.60 14.22 15.70L14.13 15.61L14.28 15.76Q17.32 15.74 18.49 16.72L18.57 16.79L18.47 16.70Q19.54 17.60 19.42 19.65L19.43 19.66L19.32 19.55Q19.19 21.84 19.14 22.11L19.08 22.06L19.12 22.09Q19.05 23.68 18.19 24.44L18.03 24.29L18.04 24.30Q16.81 25.46 14.36 25.46ZM17.43 27.06L17.47 27.10L17.38 27.01Q18.27 26.97 19.49 26.87L19.55 26.93L19.55 26.93Q19.84 26.85 19.84 26.75L19.86 26.77L19.92 26.83Q19.87 26.74 19.85 26.64L19.85 26.64L19.85 26.64Q19.77 26.49 19.77 26.42L19.93 26.58L19.89 26.54Q19.78 26.25 20.00 26.06L20.16 26.21L20.15 26.21Q20.59 25.35 20.59 24.13L20.72 24.25L20.64 24.18Q20.70 23.62 20.64 22.07L20.61 22.04L20.52 21.95Q20.46 20.40 20.36 19.69L20.35 19.67L20.39 19.71Q20.18 18.38 19.60 17.65L19.64 17.69L19.35 17.48L19.30 17.42Q19.25 17.05 18.73 16.47L18.82 16.55L18.73 16.46Q17.33 15.43 14.17 15.43L14.09 15.35L12.94 15.32L13.08 15.46Q10.83 15.35 9.73 16.23L9.82 16.32L9.85 16.35Q9.22 16.99 9.24 18.28L9.27 18.31L9.19 18.24Q9.20 18.51 9.28 19.32L9.34 19.37L9.39 19.42Q9.50 20.26 9.48 20.55L9.39 20.47L9.46 20.53Q9.65 22.54 9.70 22.83L9.70 22.83L9.55 22.68Q9.78 24.04 10.37 24.77L10.49 24.89L10.44 24.89L10.53 24.98Q11.13 26.63 13.52 26.90L13.47 26.85L13.54 26.92Q14.01 26.89 17.38 27.01ZM15.71 18.95L15.62 18.86L15.69 18.93Q16.15 18.86 17.23 19.20L17.31 19.28L17.28 19.25Q17.48 19.70 17.46 20.65L17.49 20.68L17.41 20.60Q17.40 22.90 15.54 23.39L15.63 23.47L15.55 23.39Q15.09 23.53 14.43 23.60L14.44 23.60L14.52 23.68Q13.81 23.68 12.70 23.29L12.62 23.20L12.64 23.22Q12.44 22.73 12.46 21.78L12.51 21.82L12.55 21.86Q12.56 20.33 13.44 19.67L13.41 19.64L13.39 19.62Q14.01 19.09 15.65 18.89Z"/><path d="M9 8 C50 23,38 20,78 9" stroke="#999" fill="none"/><path d="M19 4 C27 3,28 9,64 2" stroke="#111" fill="none"/><path d="M19 13 C59 2,51 25,75 24" stroke="#222" fill="none"/><path fill="#222" d="M46.27 11.78L46.44 11.95L46.39 11.90Q43.56 11.83 41.18 11.19L41.17 11.19L41.23 11.24Q42.18 14.15 42.31 17.26L42.35 17.30L42.31 17.27Q42.44 20.36 41.66 23.32L41.61 23.27L41.54 23.20Q43.52 22.98 45.77 22.88L45.70 22.81L45.63 22.73Q48.15 22.61 49.30 21.05L49.35 21.10L49.30 21.05Q50.32 19.76 50.44 17.12L50.39 17.07L50.41 17.09Q50.44 15.95 50.15 14.85L50.22 14.92L50.25 14.95Q49.38 11.86 46.35 11.86ZM38.68 26.00L38.65 25.96L38.64 25.95Q40.54 22.35 40.54 18.04L40.55 18.05L40.62 18.12Q40.65 12.67 37.89 8.17L37.79 8.07L37.82 8.10Q41.16 9.77 46.47 9.90L46.57 10.00L46.57 10.00Q52.19 10.04 52.41 14.64L52.41 14.64L52.42 14.65Q52.56 16.46 52.54 17.39L52.46 17.31L52.45 17.30Q52.31 20.21 51.77 21.61L51.84 21.68L51.95 21.79Q51.54 22.36 51.05 22.90L51.09 22.94L51.07 22.92Q50.13 23.84 48.44 24.16L48.44 24.16L48.46 24.17Q47.52 24.43 45.58 24.58L45.60 24.59L45.68 24.67Q41.60 24.83 38.64 25.95ZM50.27 25.98L50.30 26.02L50.23 25.94Q51.91 25.64 52.96 24.69L53.07 24.80L52.99 24.72Q53.80 23.61 53.77 21.85L53.87 21.95L53.80 21.88Q53.81 21.01 53.72 18.76L53.80 18.84L53.46 15.81L53.37 15.72Q53.42 14.42 52.81 13.08L52.65 12.92L52.67 12.95Q52.49 12.50 52.05 12.08L51.97 11.99L51.97 11.90L51.99 11.92Q50.96 10.08 48.12 9.84L48.02 9.74L47.97 9.68Q46.27 9.63 41.77 9.16L41.77 9.16L41.78 9.17Q39.69 8.90 37.32 7.60L37.24 7.52L37.35 7.63Q40.49 12.41 40.49 18.04L40.43 17.98L40.35 17.90Q40.39 22.44 38.24 26.41L38.22 26.39L38.18 26.35Q38.66 26.22 39.51 25.90L39.60 25.98L39.56 25.94Q39.40 26.54 38.84 27.50L38.78 27.44L38.78 27.44Q40.69 26.70 42.84 26.39L42.88 26.43L42.86 26.40Q44.16 26.16 46.50 26.08L46.53 26.11L46.54 26.12Q48.98 25.99 50.16 25.87ZM50.21 17.14L50.27 17.20L50.18 17.11Q50.01 22.32 45.70 22.57L45.64 22.51L45.63 22.50Q44.46 22.65 43.14 22.82L43.07 22.74L43.16 22.84Q43.63 20.37 43.63 18.02L43.50 17.89L43.62 18.01Q43.49 15.51 43.03 13.04L43.06 13.07L43.11 13.12Q44.52 13.31 47.53 13.31L47.57 13.35L47.61 13.39Q48.47 13.27 49.52 13.88L49.48 13.84L49.55 13.90Q50.28 15.27 50.18 17.11Z"/><path fill="#444" d="M25.11 25.45L25.06 25.40L25.02 25.35Q27.03 22.59 31.34 17.50L31.30 17.46L31.41 17.57Q27.53 17.63 25.11 16.75L25.21 16.85L25.08 16.72Q24.75 15.90 24.26 15.00L24.17 14.91L24.25 14.99Q26.80 15.87 29.66 15.90L29.79 16.03L29.68 15.91Q32.64 16.04 35.33 15.35L35.22 15.24L35.33 15.35Q34.93 15.64 34.76 15.98L34.91 16.13L34.91 16.13Q33.22 17.50 31.41 19.82L31.46 19.87L28.25 23.81L28.27 23.82Q29.68 23.68 31.13 23.72L31.19 23.79L31.06 23.66Q32.56 23.79 34.01 24.04L33.92 23.95L34.03 24.06Q33.99 24.31 34.46 25.61L34.55 25.71L34.58 25.73Q32.20 25.21 29.63 25.29L29.60 25.26L29.61 25.27Q27.04 25.31 24.69 26.07L24.61 25.99L24.78 26.16Q24.70 25.94 25.00 25.33ZM24.25 26.39L24.31 26.45L24.37 26.51Q24.82 26.25 25.84 25.98L25.81 25.94L25.93 26.07Q25.65 26.08 25.38 26.34L25.34 26.31L25.40 26.37Q25.31 26.80 24.92 27.53L24.94 27.55L24.95 27.56Q27.86 26.57 31.06 26.67L31.20 26.81L31.02 26.63Q34.23 26.76 37.17 27.96L37.25 28.04L37.17 27.96Q36.31 26.83 35.72 25.51L35.70 25.48L35.67 25.45Q35.13 25.20 34.44 25.06L34.62 25.24L34.46 25.07Q34.46 24.73 34.21 23.80L34.14 23.72L34.14 23.73Q33.11 23.48 30.81 23.40L30.87 23.47L30.84 23.44Q32.50 21.43 35.73 17.34L35.69 17.29L35.72 17.33Q35.88 16.86 36.32 16.00L36.16 15.84L34.82 16.45L34.82 16.45Q34.89 16.42 34.99 16.35L34.84 16.21L35.12 16.24L35.14 16.26Q35.43 15.57 35.79 14.96L35.79 14.95L35.64 14.80Q32.78 15.81 29.75 15.77L29.79 15.80L29.66 15.68Q26.70 15.75 23.81 14.57L23.80 14.56L23.77 14.54Q24.39 15.59 24.90 16.91L25.01 17.02L24.90 16.91Q25.59 17.26 26.28 17.43L26.23 17.39L26.31 17.47Q26.27 17.74 26.46 18.67L26.59 18.80L26.63 18.83Q27.47 18.82 29.60 18.92L29.73 19.05L29.78 19.10Q28.15 21.14 24.82 25.28L24.73 25.19L24.89 25.34Q24.63 25.62 24.27 26.41Z"/><path fill="#222" d="M63.29 18.79L63.23 18.73L63.34 18.84Q63.29 17.81 62.76 17.22L62.77 17.23L62.82 17.28Q62.34 16.74 61.41 16.77L61.30 16.65L61.28 16.64Q59.86 16.76 59.32 18.13L59.40 18.20L59.40 18.20Q59.25 18.74 59.23 19.18L59.20 19.16L59.07 19.03Q59.05 22.26 58.46 25.05L58.45 25.04L58.46 25.05Q57.25 25.26 56.05 25.89L56.18 26.02L56.17 26.01Q57.64 21.54 57.47 16.84L57.38 16.74L57.48 16.85Q57.22 12.04 55.58 7.65L55.61 7.68L55.60 7.67Q56.67 8.45 57.96 8.89L57.96 8.88L57.93 8.86Q59.03 12.74 59.15 16.51L59.13 16.49L59.07 16.43Q60.03 15.16 61.77 15.21L61.80 15.25L61.81 15.26Q65.08 15.32 65.15 18.77L64.99 18.60L65.05 18.67Q65.13 22.32 66.01 25.30L66.06 25.35L65.96 25.25Q64.74 24.69 63.61 24.57L63.75 24.71L63.69 24.65Q63.29 22.48 63.21 18.71ZM63.57 24.94L63.51 24.89L63.40 24.77Q64.18 24.96 64.89 25.13L64.88 25.12L64.94 25.19Q64.91 25.23 65.25 26.50L65.16 26.41L65.18 26.44Q67.10 27.05 68.40 27.98L68.54 28.13L68.46 28.05Q66.78 24.38 66.44 20.32L66.34 20.22L66.38 20.26Q66.25 17.96 65.35 16.96L65.25 16.86L65.36 16.97Q65.19 16.75 64.77 16.46L64.89 16.57L64.87 16.55Q64.66 16.17 64.25 15.68L64.25 15.69L64.22 15.61L64.23 15.61Q63.82 15.21 61.82 15.04L61.64 14.87L61.66 14.88Q61.23 14.92 60.33 15.14L60.34 15.16L60.40 15.21Q60.12 11.95 59.90 10.33L59.97 10.40L59.93 10.36Q59.50 10.35 58.55 10.15L58.49 10.10L58.55 10.16Q58.53 9.77 58.36 8.81L58.31 8.77L58.23 8.69Q56.32 8.05 55.12 7.05L55.12 7.05L55.13 7.05Q57.09 11.71 57.26 16.72L57.21 16.68L57.21 16.68Q57.45 21.73 55.81 26.46L55.85 26.50L55.75 26.39Q56.29 25.96 57.03 25.64L57.13 25.74L56.68 27.23L56.70 27.25Q58.61 26.30 59.88 26.17L60.01 26.30L59.82 26.12Q60.26 22.71 60.39 20.17L60.48 20.27L60.42 20.20Q60.57 19.11 61.82 18.40L61.81 18.39L61.76 18.33Q61.99 18.08 62.34 18.10L62.38 18.15L62.34 18.11Q62.50 18.17 62.72 18.19L62.75 18.22L62.93 18.19L62.91 18.16Q63.01 18.51 63.09 18.81L62.98 18.70L63.06 18.78Q63.24 22.73 63.56 24.93Z"/></svg>