<svg xmlns="http://www.w3.org/2000/svg" width="80" height="30" viewBox="0,0,80,30"><path fill="#333" d="M13.28 18.11L13.31 18.14L13.30 18.13Q13.05 18.03 12.85 18.03L13.01 18.19L13.00 18.17Q12.04 18.07 11.11 18.61L11.23 18.73L11.16 18.66Q10.34 19.41 10.34 20.63L10.25 20.54L10.20 20.49Q10.21 22.70 11.19 23.56L11.25 23.62L11.23 23.60Q11.79 24.31 13.26 24.31L13.42 24.47L13.26 24.31Q13.58 24.48 13.77 24.48L13.73 24.44L13.77 24.47Q14.73 24.34 15.47 23.29L15.56 23.38L15.64 23.46Q16.30 22.48 16.25 21.33L16.14 21.22L16.14 21.22Q16.24 20.98 16.24 20.71L16.23 20.70L16.29 20.76Q16.15 19.47 15.27 18.72L15.41 18.86L15.36 18.81Q14.49 18.07 13.34 18.17ZM16.20 24.68L16.22 24.70L16.25 24.73Q15.56 25.92 13.16 25.99L13.21 26.05L13.24 26.08Q10.90 25.99 9.87 24.96L9.85 24.94L9.87 24.96Q9.09 23.98 8.57 20.89L8.57 20.89L8.49 20.81Q8.37 19.76 8.37 18.96L8.27 18.86L8.19 18.77Q8.22 17.65 8.68 16.97L8.69 16.98L8.79 17.07Q9.55 16.07 11.46 16.07L11.52 16.13L11.47 16.08Q15.66 16.21 16.88 17.87L16.82 17.81L16.76 17.75Q16.91 17.26 17.18 16.23L17.28 16.33L17.28 16.34Q18.10 16.15 19.67 15.64L19.59 15.57L19.57 15.54Q18.07 19.23 17.92 23.30L17.85 23.22L17.81 23.18Q17.71 27.19 19.08 30.94L19.07 30.93L19.18 31.04Q17.94 30.51 16.79 30.34L16.85 30.40L16.84 30.38Q16.18 27.77 16.11 24.59ZM16.71 30.62L16.77 30.68L16.71 30.62Q17.09 30.64 18.00 30.83L18.14 30.98L18.13 30.96Q18.24 31.39 18.61 32.30L18.49 32.18L18.53 32.22Q20.29 32.78 21.76 33.62L21.75 33.61L21.74 33.59Q19.03 29.25 19.03 23.77L19.15 23.89L19.11 23.84Q19.11 19.75 20.70 16.03L20.72 16.05L20.65 15.99Q20.20 16.17 19.32 16.59L19.44 16.71L19.44 16.71Q19.49 16.05 19.91 15.05L19.93 15.07L20.06 15.20Q19.01 15.50 16.96 16.06L16.98 16.09L16.96 16.07Q16.86 16.40 16.66 17.16L16.63 17.13L16.71 17.21Q15.41 15.99 11.47 15.89L11.50 15.92L11.35 15.77Q9.34 15.76 8.46 16.72L8.56 16.82L8.56 16.82Q7.96 17.44 7.99 18.67L7.95 18.63L8.13 18.82Q8.18 20.73 8.82 23.15L8.71 23.04L8.71 23.04Q9.19 24.64 9.77 25.25L9.81 25.29L10.07 25.55L10.09 25.57Q10.77 27.28 14.27 27.43L14.26 27.42L14.32 27.47Q15.01 27.53 16.18 27.33L16.14 27.29L16.11 27.26Q16.30 29.14 16.69 30.61ZM14.51 19.61L14.56 19.66L14.57 19.67Q15.11 19.53 15.65 19.72L15.67 19.74L15.76 19.83Q15.83 20.13 15.91 20.52L15.93 20.54L16.00 20.61Q16.00 20.91 15.95 21.30L15.88 21.22L15.91 21.26Q15.87 22.44 15.21 23.27L15.23 23.29L15.37 23.43Q14.64 24.37 13.44 24.25L13.28 24.08L13.27 24.08Q12.56 24.20 11.95 23.93L11.98 23.96L11.83 23.81Q11.60 23.28 11.60 22.50L11.59 22.49L11.76 22.66Q11.62 22.33 11.62 22.13L11.58 22.09L11.66 22.17Q11.61 20.99 12.46 20.25L12.43 20.21L12.55 20.33Q13.46 19.64 14.58 19.68Z"/><path fill="#333" d="M60.14 18.17L60.15 18.18L60.19 18.23Q59.90 18.08 59.70 18.08L59.78 18.16L59.83 18.20Q58.79 18.02 57.86 18.56L57.98 18.68L57.94 18.64Q57.10 19.37 57.10 20.59L57.19 20.68L57.11 20.60Q57.07 22.76 58.04 23.62L58.00 23.57L58.13 23.70Q58.67 24.39 60.14 24.39L60.13 24.37L60.19 24.44Q60.39 24.49 60.58 24.49L60.46 24.36L60.45 24.36Q61.53 24.34 62.27 23.29L62.37 23.39L62.28 23.30Q62.94 22.31 62.89 21.16L62.97 21.25L63.01 21.29Q62.98 20.91 62.98 20.64L63.04 20.71L63.05 20.72Q62.94 19.46 62.06 18.71L62.17 18.82L62.08 18.73Q61.22 18.00 60.07 18.10ZM62.97 24.65L63.07 24.75L62.99 24.67Q62.37 25.93 59.97 26.01L60.05 26.08L60.02 26.05Q57.72 26.01 56.69 24.98L56.74 25.03L56.80 25.09Q55.83 23.93 55.32 20.84L55.29 20.81L55.28 20.80Q55.07 19.66 55.07 18.85L55.07 18.85L55.10 18.88Q55.16 17.79 55.62 17.10L55.61 17.10L55.48 16.97Q56.53 16.25 58.44 16.25L58.29 16.10L58.28 16.09Q62.47 16.22 63.70 17.89L63.67 17.86L63.61 17.80Q63.77 17.33 64.04 16.30L63.92 16.18L63.94 16.20Q64.75 16.01 66.32 15.49L66.35 15.52L66.49 15.66Q64.84 19.20 64.70 23.27L64.67 23.24L64.65 23.22Q64.60 27.28 65.97 31.03L65.96 31.02L65.87 30.93Q64.75 30.51 63.60 30.34L63.64 30.39L63.61 30.36Q63.16 27.94 63.08 24.76ZM63.53 30.64L63.42 30.53L63.43 30.54Q64.03 30.77 64.93 30.97L64.78 30.82L64.91 30.95Q65.01 31.37 65.38 32.27L65.34 32.24L65.31 32.20Q67.10 32.79 68.57 33.62L68.49 33.55L68.46 33.51Q65.82 29.24 65.82 23.75L65.89 23.82L65.82 23.76Q65.85 19.69 67.44 15.97L67.54 16.08L67.47 16.01Q67.11 16.28 66.23 16.70L66.21 16.68L66.19 16.66Q66.46 16.23 66.88 15.22L66.72 15.07L66.81 15.15Q65.76 15.44 63.70 16.01L63.65 15.96L63.84 16.15Q63.67 16.42 63.47 17.18L63.54 17.24L63.39 17.09Q62.27 16.05 58.33 15.95L58.32 15.94L58.24 15.86Q56.19 15.82 55.31 16.77L55.35 16.81L55.32 16.78Q54.83 17.51 54.85 18.73L54.79 18.67L54.89 18.78Q54.90 20.64 55.53 23.06L55.63 23.16L55.46 22.99Q56.06 24.72 56.65 25.33L56.60 25.28L56.82 25.50L56.72 25.40Q57.57 27.28 61.07 27.42L61.04 27.39L61.10 27.46Q61.68 27.39 62.85 27.20L62.80 27.15L62.97 27.31Q63.02 29.06 63.41 30.53ZM61.33 19.63L61.33 19.63L61.37 19.67Q61.96 19.57 62.49 19.77L62.61 19.89L62.57 19.84Q62.74 20.24 62.82 20.63L62.82 20.64L62.73 20.54Q62.85 20.96 62.80 21.35L62.80 21.35L62.79 21.33Q62.66 22.43 62.00 23.27L62.01 23.28L62.17 23.43Q61.42 24.35 60.22 24.22L60.08 24.08L60.14 24.14Q59.26 24.10 58.65 23.83L58.65 23.83L58.71 23.89Q58.46 23.35 58.46 22.56L58.45 22.55L58.46 22.56Q58.49 22.40 58.49 22.20L58.53 22.24L58.50 22.22Q58.50 21.08 59.36 20.34L59.25 20.23L59.35 20.33Q60.18 19.56 61.31 19.61Z"/><path fill="#222" d="M25.02 25.35L24.96 25.29L25.05 25.38Q27.15 22.70 31.45 17.61L31.38 17.54L31.36 17.52Q27.65 17.75 25.22 16.87L25.16 16.81L25.22 16.86Q24.61 15.77 24.12 14.86L24.14 14.87L24.15 14.88Q26.78 15.85 29.64 15.87L29.72 15.95L29.72 15.96Q32.64 16.04 35.33 15.35L35.19 15.21L35.25 15.27Q35.02 15.73 34.85 16.07L34.74 15.96L34.91 16.13Q33.15 17.43 31.34 19.75L31.43 19.85L28.28 23.84L28.31 23.87Q29.66 23.66 31.11 23.71L31.05 23.65L31.11 23.71Q32.58 23.81 34.02 24.05L34.08 24.10L33.99 24.02Q34.09 24.42 34.56 25.71L34.48 25.64L34.46 25.62Q32.14 25.16 29.57 25.23L29.67 25.32L29.50 25.16Q27.12 25.39 24.77 26.15L24.74 26.13L24.68 26.06Q24.67 25.90 24.96 25.29ZM24.26 26.41L24.38 26.52L24.25 26.39Q24.90 26.34 25.93 26.07L25.89 26.03L25.85 25.98Q25.65 26.08 25.38 26.35L25.44 26.41L25.51 26.47Q25.27 26.76 24.88 27.49L24.85 27.46L24.97 27.57Q27.97 26.69 31.18 26.79L31.12 26.73L31.03 26.64Q34.26 26.78 37.19 27.98L37.24 28.03L37.16 27.95Q36.38 26.90 35.80 25.58L35.78 25.57L35.70 25.48Q35.16 25.24 34.48 25.09L34.60 25.21L34.51 25.13Q34.50 24.78 34.26 23.85L34.12 23.70L34.25 23.83Q33.16 23.53 30.86 23.46L30.93 23.53L30.97 23.57Q32.41 21.33 35.64 17.25L35.64 17.25L35.72 17.33Q35.80 16.77 36.24 15.92L36.28 15.96L34.86 16.50L34.75 16.38Q34.88 16.42 34.98 16.34L34.84 16.21L35.01 16.13L35.08 16.21Q35.30 15.44 35.67 14.83L35.66 14.82L35.62 14.78Q32.82 15.85 29.78 15.80L29.70 15.72L29.71 15.73Q26.70 15.75 23.81 14.57L23.80 14.56L23.81 14.58Q24.52 15.72 25.03 17.04L25.04 17.05L25.01 17.02Q25.47 17.14 26.16 17.31L26.28 17.43L26.24 17.39Q26.25 17.73 26.45 18.66L26.53 18.74L26.59 18.80Q27.65 19.00 29.78 19.10L29.60 18.92L29.71 19.03Q28.05 21.04 24.73 25.18L24.83 25.28L24.73 25.18Q24.70 25.69 24.33 26.47Z"/><path d="M10 7 C23 2,24 5,61 7" stroke="#555" fill="none"/><path d="M9 26 C57 19,21 8,67 14" stroke="#555" fill="none"/><path d="M3 11 C49 6,54 26,71 18" stroke="#555" fill="none"/><path fill="#222" d="M51.75 13.74L51.82 13.81L51.72 13.71Q50.69 15.59 48.98 19.21L48.82 19.05L47.54 21.79L47.52 21.77Q47.02 23.05 46.16 24.50L46.19 24.52L46.13 24.46Q46.55 24.59 45.47 24.61L45.37 24.51L45.31 24.45Q45.33 24.47 44.52 24.47L44.64 24.59L44.70 24.64Q44.11 23.57 42.23 18.97L42.25 18.99L42.15 18.89Q40.77 15.46 39.43 13.52L39.60 13.70L39.47 13.57Q40.01 15.61 40.01 17.64L40.05 17.67L40.05 17.67Q39.98 21.79 38.08 25.36L38.16 25.45L38.10 25.39Q37.15 25.51 35.63 25.98L35.65 26.00L35.72 26.07Q38.17 22.50 38.17 17.85L38.19 17.87L38.14 17.82Q38.12 12.04 34.64 7.56L34.55 7.48L34.64 7.56Q35.60 7.94 37.12 8.38L37.18 8.44L37.26 8.52Q41.74 12.80 45.65 21.37L45.66 21.38L45.57 21.29Q47.79 16.75 49.21 14.50L49.34 14.63L49.24 14.53Q51.69 10.95 54.23 8.73L54.15 8.65L54.24 8.73Q54.91 8.45 56.43 7.96L56.39 7.92L56.56 8.09Q53.33 12.33 53.33 17.86L53.19 17.72L53.25 17.77Q53.24 22.06 55.45 25.61L55.46 25.62L55.49 25.65Q54.66 25.48 52.89 25.08L52.77 24.95L52.84 25.02Q51.39 22.02 51.39 18.17L51.40 18.18L51.24 18.02Q51.31 15.89 51.75 13.74ZM52.72 25.28L52.78 25.34L52.73 25.28Q53.18 25.36 54.11 25.54L54.02 25.45L54.05 25.48Q54.49 26.11 55.10 27.07L54.90 26.87L55.00 26.97Q56.44 27.31 58.67 28.09L58.64 28.07L58.61 28.03Q54.49 23.87 54.49 17.55L54.56 17.62L54.52 17.58Q54.63 12.72 57.45 8.78L57.38 8.72L55.99 9.19L56.06 9.26Q56.54 8.10 56.95 7.53L57.10 7.68L57.02 7.60Q55.89 8.08 54.20 8.42L54.22 8.45L54.21 8.44Q49.87 12.36 45.97 20.46L45.83 20.32L45.92 20.41Q42.53 13.30 39.35 9.93L39.41 9.98L39.40 9.98Q39.19 9.96 38.82 9.89L38.78 9.85L38.06 9.08L38.02 9.03Q37.66 8.62 37.22 8.23L37.16 8.17L37.10 8.11Q35.29 7.63 34.14 7.17L33.99 7.01L33.99 7.02Q37.83 11.64 37.83 17.68L37.90 17.75L37.83 17.68Q37.97 22.71 35.30 26.48L35.23 26.41L35.18 26.36Q35.72 26.31 36.55 26.05L36.57 26.06L36.61 26.10Q36.45 26.19 35.54 27.53L35.48 27.47L35.62 27.61Q36.66 27.18 38.91 26.69L38.90 26.68L38.93 26.71Q41.40 22.25 41.28 17.26L41.14 17.13L41.18 17.16Q42.11 19.69 44.34 24.75L44.50 24.91L44.51 24.92Q44.60 24.81 44.74 24.81L44.65 24.72L45.10 24.82L44.98 24.71Q45.35 25.23 45.87 26.06L45.80 25.99L45.86 26.05Q46.93 26.07 46.93 26.07L46.98 26.12L46.83 25.96Q47.50 25.98 47.92 26.03L47.97 26.08L47.93 26.04Q49.04 23.55 51.19 18.41L51.20 18.42L51.10 18.32Q51.07 21.86 52.73 25.29Z"/></svg>